<?xml version="1.0" encoding="utf-8"?>
<svg viewBox="0 0 578.7 578.7" xmlns="http://www.w3.org/2000/svg">
  <defs>
    <style>.cls-1,.cls-5{fill:none;}.cls-2{clip-path:url(#clip-path);}.cls-3{fill:#5b9977;}.cls-4{fill:#fff;}.cls-5{stroke:#fff;stroke-linecap:round;stroke-miterlimit:10;stroke-width:21.05px;stroke-dasharray:66.32 52.63;}</style>
    <clipPath id="clip-path" transform="translate(-10.65 -10.65)">
      <rect class="cls-1" width="600" height="600"/>
    </clipPath>
  </defs>
  <g id="Layer_2" data-name="Layer 2">
    <g id="Safeguard">
      <g class="cls-2">
        <path class="cls-3" d="M300,584.35a14.59,14.59,0,0,1-10.38-4.3L20,310.38a14.7,14.7,0,0,1,0-20.76L289.62,20a14.68,14.68,0,0,1,20.76,0L580.05,289.62a14.68,14.68,0,0,1,0,20.76L310.38,580.05a14.59,14.59,0,0,1-10.38,4.3" transform="translate(-10.65 -10.65)"/>
        <path class="cls-4" d="M300,20.65a9.62,9.62,0,0,1,6.85,2.84L576.51,293.15a9.69,9.69,0,0,1,0,13.7L306.85,576.51a9.68,9.68,0,0,1-13.7,0L23.49,306.85a9.69,9.69,0,0,1,0-13.7L293.15,23.49A9.62,9.62,0,0,1,300,20.65m0-10a19.61,19.61,0,0,0-13.92,5.77L16.42,286.08a19.68,19.68,0,0,0,0,27.84L286.08,583.58a19.68,19.68,0,0,0,27.84,0L583.58,313.92a19.68,19.68,0,0,0,0-27.84L313.92,16.42A19.61,19.61,0,0,0,300,10.65" transform="translate(-10.65 -10.65)"/>
        <g id="g-1" data-name="Layer 2" transform="matrix(0.550039, 0, 0, 0.568465, 200, 120.430298)" style="">
          <g id="Layer_1-2" data-name="Layer 1">
            <path class="cls-1" d="M132,0h57c.53.3,1,.82,1.59.87,12.24,1.08,24.52,1.79,36.72,3.2,23.45,2.72,46.44,7.62,68.19,17.07,9.61,4.17,19.71,8.05,25.5,17.86v7c-2.77,5.2-6.86,8.63-12.07,9.11-.63,14.25-.67,28.06-1.95,41.75-3.25,34.69-14.24,67-31.55,97.18-16.67,29-39.74,52.78-63.72,75.71-4.63,4.43-9.38,8.74-14.19,13.19l-17.78-16.23c12.33-12.18,24.49-24,36.42-36,28.09-28.35,48.85-61.12,59.38-99.91,2.26-8.33,3.93-16.84,5.88-25.26-33.3,23.27-70.41,29.69-109.18,29.36-.5,9-3.86,13.51-10.58,14.71-6.33,1.12-11-2.71-14.66-12.05a44.39,44.39,0,0,0-4.86.57c-3.87.89-7.75,1.78-11.55,3-25.24,7.79-45.5,21.49-55.86,47-1.2,3-1.21,5.18.91,7.65,11.9,13.88,22.81,28.73,35.76,41.55,21.86,21.65,44.87,42.15,67.61,62.89,26.57,24.22,53.59,48,76.05,76.27,36.38,45.82,53.73,98.2,53.45,156.56,0,3.94-.41,7.88-.64,12,6.59.36,10.35,4,13.13,9v7c-3.43,6.52-9.52,9.9-15.69,13.06-30.42,15.57-63.44,20.67-96.9,23.94-6.47.64-12.94,1.33-19.41,2H131a8.29,8.29,0,0,0-2.51-1,357.35,357.35,0,0,1-64.6-8.15c-18.81-4.16-37.19-9.68-53.78-19.94C5.71,568.22,1.64,565.24,0,560v-6c2.82-5.13,6.81-8.67,11.73-9.07,1.09-16.92,1.37-33.39,3.36-49.65C19.53,459,32.46,425.59,52.37,395,66,374.07,83,356,100.59,338.51c7.39-7.32,15.13-14.28,22.8-21.5l17.86,16.27c-12.39,12.26-24.72,24.15-36.71,36.37-23.78,24.23-43,51.5-54,83.94-4.42,13.06-7.66,26.53-11.43,39.81l1.44.81c32-23.22,68.65-29.6,107-29.17.55-9.6,4.37-14.59,11.14-15.06,7.52-.53,11.89,3.32,14.1,12.85,6.41-1.61,12.92-2.87,19.19-4.9,24.51-7.93,43.72-22,53.59-46.83a7.48,7.48,0,0,0-1-8.08c-17.57-24.26-38.83-45.08-60.71-65.34-31.85-29.5-64-58.72-95.29-88.79A239.87,239.87,0,0,1,42,187.53C24.71,154.78,14.27,120.13,13,83c-.31-9.26,0-18.54,0-28-6.41-.35-10.19-4-13-9V40c3.23-3.56,5.83-8.24,9.81-10.44A186.2,186.2,0,0,1,38.59,16.32c24.56-8.5,50.1-12.39,76-14.42C120.37,1.45,126.18.64,132,0Z" style="fill: rgb(255, 255, 255);"/>
            <path class="cls-5" d="M172,184.13c0,7.29-5.48,13-12.25,12.77s-12.22-6.12-12.1-13.17c.11-7.23,5.62-12.82,12.46-12.72C166.46,171.11,173.18,177.32,172,184.13Z" style="stroke: none; stroke-dasharray: none; stroke-linecap: butt; stroke-miterlimit: 4; stroke-width: 1px; fill: rgb(255, 255, 255);"/>
            <path class="cls-5" d="M172.05,231.23c0,7.33-5.32,12.86-12.23,12.76s-12.18-5.84-12.13-13.08c0-7,5.81-13,12.42-12.85S172.07,224,172.05,231.23Z" style="stroke: none; stroke-dasharray: none; stroke-linecap: butt; stroke-miterlimit: 4; stroke-width: 1px; fill: rgb(255, 255, 255);"/>
            <path class="cls-6" d="M172,368.58c0,7.54-4.95,12.56-12.27,12.5-7.09-.06-12.15-5.45-12.08-12.89.06-7.15,5.73-12.95,12.47-12.75C167.08,355.64,172.07,361.15,172,368.58Z" style="fill: rgb(255, 255, 255);"/>
            <path class="cls-5" d="M172.05,415.59c0,7.56-5,12.76-12.27,12.71-6.83-.05-12-5.42-12.09-12.57-.09-7.4,5.15-13,12.22-13S172.05,408,172.05,415.59Z" style="stroke: none; stroke-dasharray: none; stroke-linecap: butt; stroke-miterlimit: 4; stroke-width: 1px; fill: rgb(255, 255, 255);"/>
          </g>
        </g>
      </g>
    </g>
  </g>
  <path class="cls-4" d="M 46.11 250.448 L 88.219 227.4 L 76.707 255.966 L 130.423 256.542 L 90.063 282.546 L 166.722 327.754 L 77.535 328.012 L 89.695 368.809 L 46.36 349.815 L 36.706 380.946 L 17.033 339.325 C 16.305 337.817 17.236 335.567 19.082 334.37 C 33.887 325.093 45.196 310.083 49.134 294.478 C 53.477 277.523 47.008 262.003 43.778 255.657 C 42.938 254.049 44.065 251.561 46.14 250.445" style="transform-origin: 99.089px 301.145px;" transform="matrix(-0.952104, 0.305774, -0.305774, -0.952104, 0.000007, 0.000006)"/>
  <path class="cls-4" d="M 421.959 343.772 L 468.027 366.103 L 455.432 338.426 L 514.198 337.868 L 470.044 312.674 L 553.911 268.874 L 456.339 268.624 L 469.642 229.097 L 422.232 247.499 L 411.671 217.338 L 390.148 257.663 C 389.352 259.124 390.37 261.304 392.389 262.464 C 408.587 271.452 420.959 285.994 425.268 301.113 C 430.019 317.54 422.942 332.577 419.408 338.726 C 418.489 340.283 419.722 342.694 421.992 343.775" style="transform-origin: 479.919px 294.654px;" transform="matrix(0.977251, 0.212088, -0.212088, 0.977251, 0.000004, 0.000006)"/>
</svg>