<?xml version="1.0" encoding="utf-8"?>
<svg viewBox="0 0 578.7 578.7" xmlns="http://www.w3.org/2000/svg">
  <defs>
    <style>.cls-1{fill:none;}.cls-2{clip-path:url(#clip-path);}.cls-3{fill:#119ac0;}.cls-4{fill:#fff;}</style>
    <clipPath id="clip-path" transform="translate(-10.65 -8.7)">
      <rect id="_Clipping_Path_" data-name="&lt;Clipping Path&gt;" class="cls-1" width="600" height="596.1"/>
    </clipPath>
  </defs>
  <g id="Layer_2" data-name="Layer 2">
    <g id="Chill">
      <g class="cls-2">
        <path class="cls-3" d="M300,582.4a14.59,14.59,0,0,1-10.38-4.3L20,308.43a14.68,14.68,0,0,1,0-20.76L289.62,18a14.68,14.68,0,0,1,20.76,0L580,287.67a14.68,14.68,0,0,1,0,20.76L310.38,578.1A14.61,14.61,0,0,1,300,582.4" transform="translate(-10.65 -8.7)"/>
        <path class="cls-4" d="M300,18.7a9.62,9.62,0,0,1,6.85,2.84L576.51,291.21a9.68,9.68,0,0,1,0,13.69L306.85,574.56a9.68,9.68,0,0,1-13.7,0L23.49,304.9a9.68,9.68,0,0,1,0-13.69L293.15,21.54A9.62,9.62,0,0,1,300,18.7m0-10a19.61,19.61,0,0,0-13.92,5.77L16.42,284.13a19.68,19.68,0,0,0,0,27.84L286.08,581.63a19.68,19.68,0,0,0,27.84,0L583.58,312a19.68,19.68,0,0,0,0-27.84L313.92,14.47A19.61,19.61,0,0,0,300,8.7" transform="translate(-10.65 -8.7)"/>
        <circle class="cls-3" cx="289.51" cy="286.73" r="82.97"/>
      </g>
    </g>
  </g>
  <polygon id="Colored_Notch" data-name="Colored Notch" class="cls-2" points="253.97500610351562 334.5740051269531 67.54499816894531 334.5740051269531 289.3550109863281 553.9039916992188 511.1549987792969 334.5740051269531 324.72601318359375 334.5740051269531" style="clip-path: none; fill: rgb(255, 255, 255);"/>
  <path class="cls-2" d="M 249.802 355.029 L 242.165 430.17 L 185.753 430.78 C 182.095 430.819 179.418 433.797 180.97 435.912 L 285.335 533.116 C 288.259 535.888 293.419 535.832 296.31 532.998 L 399.493 433.555 C 401.211 431.405 398.307 428.486 394.648 428.526 L 338.429 429.133 L 329.702 354.167 C 329.687 352.199 325.833 351.095 323.142 352.27 C 312.832 356.823 301.445 359.24 289.875 359.35 C 278.248 359.458 266.758 357.288 256.334 352.991 C 253.824 351.87 249.982 353.06 249.802 355.029" style="clip-path: none; fill: rgb(17, 154, 192); transform-origin: 290.322px 443.666px;"/>
  <path class="cls-2" d="M 268.222 326.464 C 284.753 317.566 298.32 315.523 309.637 316.153 C 314.6 316.426 322.779 319.353 328.582 324.094 C 341.628 320.675 367.255 318.496 373.686 314.858 C 374.597 314.351 375.209 313.477 375.347 312.487 C 375.801 309.105 378.147 287.953 377.278 279.511 C 376.071 268.57 360.805 215.69 360.544 212.517 C 359.579 200.2 369.872 143.026 370.625 140.437 C 371.243 138.285 383.246 118.364 387.224 111.773 C 387.937 110.595 387.505 109.094 386.258 108.417 C 372.267 100.868 353.032 96.839 353.032 96.839 C 353.032 96.839 355.446 91.177 356.778 87.019 C 357.147 85.744 356.237 84.454 354.847 84.284 C 316.01 77.902 280.891 81.449 254.153 93.484 C 252.628 94.186 251.93 95.877 252.55 97.367 C 255.225 103.677 258.228 114.79 260.806 127.172 L 293.482 124.491 C 300.648 124.14 305.529 131.245 302.269 137.28 C 300.754 140.081 297.774 141.907 294.448 142.069 L 263.954 144.658 C 265.57 154.424 266.538 164.274 266.851 174.152 L 293.82 171.755 C 298.956 171.507 303.329 175.246 303.573 180.097 C 303.82 184.936 299.889 189.058 294.767 189.332 L 265.711 191.858 C 265.711 215.781 251.884 229.357 245.231 245.276 C 238.549 249.15 210.082 254.174 188.694 262.361 L 160.122 259.471 C 149.201 267.321 143.359 287.953 150.668 300.817 C 163.318 308.576 211.058 327.394 268.222 326.464" style="clip-path: none; fill: rgb(255, 255, 255);"/>
</svg>