<?xml version="1.0" encoding="utf-8"?>
<svg viewBox="0 0 500 500" xmlns="http://www.w3.org/2000/svg" xmlns:bx="https://boxy-svg.com">
  <defs>
    <bx:grid x="-1226.747" y="-811.503" width="3822.386" height="1997.023"/>
  </defs>
  <path style="fill-opacity: 1; fill-rule: nonzero; stroke: none; fill: rgb(16, 14, 17);" id="path16" d="M 312.419 239.393 C 318.025 238.03 323.742 236.761 329.564 235.586 C 332.275 235.042 335.133 234.878 337.784 234.05 C 343.391 232.296 347.045 226.825 349.741 221.541 C 351.512 218.077 353.266 214.732 355 211.505 C 356.23 209.231 357.804 206.926 359.547 205.013 C 362.73 201.535 365.523 198.344 367.929 195.433 C 373.191 189.08 379.904 180.818 388.063 170.653 C 388.118 170.579 388.115 170.51 388.054 170.446 L 387.947 170.337 C 387.923 170.312 387.902 170.308 387.872 170.331 C 379.001 178.494 370.117 186.324 361.059 194.754 C 360.269 195.494 359.445 196.232 358.733 197.064 C 353.479 203.19 348.954 207.981 342.549 211.214 C 339.7 212.645 336.873 214.023 334.065 215.346 C 326.017 219.133 319.894 225.582 315.001 233.307 C 313.834 235.146 313.029 237.174 312.076 239.131 C 312.031 239.219 312.071 239.334 312.16 239.373 C 312.243 239.408 312.331 239.412 312.419 239.393 M 158.179 211.456 C 153.646 209.409 149.802 206.774 146.648 203.548 C 144.989 201.848 143.273 199.909 141.49 197.729 C 140.898 197.005 140.27 196.335 139.6 195.726 C 132.313 189.096 124.973 182.3 117.554 175.586 C 115.441 173.676 113.382 171.667 111.379 169.558 C 111.306 169.48 111.185 169.474 111.111 169.548 L 110.996 169.664 C 110.936 169.719 110.927 169.812 110.976 169.877 C 119.063 180.487 127.267 190.533 135.597 200.009 C 136.315 200.827 138.156 202.749 141.115 205.767 C 143.804 208.513 146.098 211.952 148 216.086 C 149.725 219.847 151.422 223.315 153.091 226.493 C 154.933 230.001 157.86 233.361 161.389 234.829 C 165.302 236.459 169.724 236.845 173.887 237.097 C 179.109 237.415 184.081 238.109 188.799 239.174 C 188.938 239.205 189.049 239.045 188.985 238.907 C 185.016 230.586 179.498 223.924 172.426 218.936 C 168.198 215.951 162.971 213.622 158.179 211.456 M 386.328 332.198 C 383.836 331.113 381.519 330.318 379.372 329.823 C 375.403 328.902 371.226 329.62 367.3 330.888 C 359.574 333.393 345.708 334.41 345.546 334.464 C 345.386 334.448 346.273 316.209 344.482 306.09 C 343.224 298.24 341.212 291.444 338.409 284.318 C 334.731 274.951 329.593 265.952 323.7 258.442 C 310.814 242.014 294.808 230.943 275.683 225.224 C 270.259 223.602 264.116 222.459 257.247 221.799 C 244.568 220.585 231.533 222.478 219.476 226.731 C 205.267 231.735 192.883 239.918 182.329 251.277 C 174.821 259.356 168.748 268.385 164.105 278.361 C 163.065 280.595 162.061 282.791 161.094 284.958 C 161.01 285.141 160.876 285.255 160.696 285.309 C 153.049 287.505 145.205 287.936 137.527 288.011 C 135.561 288.03 133.628 288.243 131.736 288.645 C 127.444 289.557 123.211 291.599 119.066 292.638 C 113.71 293.984 108.234 294.032 102.642 292.789 C 99.676 292.133 96.463 291.379 92.992 290.522 C 88.469 289.408 84.142 289.16 80.006 289.789 C 79.183 289.914 79.126 289.746 79.835 289.279 C 83.267 287.025 87.054 285.596 91.194 284.993 C 95.153 284.414 98.793 284.047 102.11 283.886 C 104.262 283.783 105.939 283.571 107.147 283.252 C 110.005 282.495 112.842 281.107 115.209 278.917 C 116.394 277.82 117.494 276.766 118.512 275.746 C 118.674 275.582 118.627 275.289 118.423 275.195 C 111.408 271.873 103.567 273.267 96.166 273.763 C 93.247 273.956 89.978 273.984 87.162 273.599 C 82.257 272.925 77.659 271.071 73.363 268.034 C 71.504 266.72 69.705 265.465 67.964 264.282 C 63.192 261.021 57.988 259.305 52.123 258.806 C 46.063 258.284 40.088 258.339 34.191 258.96 C 33.524 259.028 33.497 258.918 34.107 258.632 C 35.334 258.052 36.563 257.547 37.798 257.115 C 42.459 255.49 47.701 253.74 53.525 251.867 C 57.304 250.652 60.953 250.36 64.473 250.991 C 68.215 251.658 71.877 253.547 75.462 255.167 C 79.634 257.051 83.258 257.988 87.513 257.615 C 89.566 257.438 90.912 257.289 91.556 257.17 C 95.361 256.471 99.071 255.885 102.687 255.405 C 106.3 254.925 109.383 254.781 111.925 254.97 C 118.216 255.44 123.835 257.061 128.785 259.836 C 131.351 261.273 134.044 262.834 136.865 264.518 C 141.346 267.2 146.065 268.598 151.02 268.713 C 153.827 268.777 156.995 268.559 160.525 268.053 C 160.724 268.023 160.853 267.809 160.788 267.606 C 159.17 262.463 156.884 257.379 153.938 252.357 C 152.139 249.3 150.269 246.817 148.331 244.908 C 141.26 237.956 131.912 235.696 122.332 236.205 C 116.898 236.498 111.198 236.826 105.908 235.924 C 99.108 234.759 92.793 231.507 88.396 225.685 C 87.009 223.846 85.565 221.644 84.067 219.074 C 81.698 215.01 78.132 212.001 74.186 209.801 C 65.966 205.226 56.842 203.303 47.655 201.355 C 46.739 201.162 45.897 200.762 44.987 200.598 C 44.824 200.569 44.801 200.489 44.908 200.36 C 44.959 200.306 45.014 200.276 45.079 200.276 C 46.606 200.299 48.151 200.216 49.708 200.032 C 55.078 199.404 60.647 198.888 66.416 198.482 C 76.743 197.748 88.608 199.85 94.483 210.068 C 95.31 211.505 96.06 212.809 96.736 213.978 C 99.778 219.261 108.04 221.393 113.326 220.124 C 114.659 219.808 115.991 219.49 117.319 219.177 C 121.644 218.161 125.783 218.38 129.738 219.841 C 129.914 219.906 129.96 219.851 129.876 219.674 C 126.615 212.819 123.646 206.693 120.977 201.301 C 114.627 188.481 107.678 175.402 100.144 162.055 C 97.494 157.362 94.94 153.02 92.475 149.027 C 92.211 148.6 92.276 148.531 92.67 148.824 C 100.259 154.479 108.28 160.072 116.73 165.604 C 124.367 170.601 132.324 175.611 140.09 180.68 C 147.579 185.561 155.209 190.169 162.981 194.503 C 163.113 194.576 163.222 194.548 163.305 194.413 L 163.383 194.278 C 163.406 194.245 163.402 194.21 163.369 194.184 C 160.405 191.701 158.185 188.881 156.703 185.726 C 154.35 180.705 154.052 175.515 155.82 170.158 C 156.222 168.943 156.547 167.739 156.796 166.551 C 157.911 161.283 156.811 156.916 153.502 153.447 C 151.422 151.261 148.508 150.215 146.131 148.373 C 142.308 145.405 139.585 141.409 137.953 136.389 C 136.384 131.566 135.7 126.909 135.894 122.423 C 136.015 119.693 136.399 116.779 137.046 113.675 C 139.086 103.918 141.898 94.68 144.229 85.001 C 144.262 84.856 144.391 84.767 144.526 84.792 L 144.646 84.817 C 144.71 84.831 144.738 84.873 144.733 84.937 C 143.961 93.779 143.624 102.991 143.715 112.575 C 143.822 123.274 148.271 134.222 157.448 139.178 C 158.729 139.867 159.904 140.576 160.973 141.3 C 168.784 146.578 172.961 155.915 173.415 165.758 C 173.604 169.796 173.721 173.93 173.773 178.162 C 173.854 184.882 177.205 191.936 181.319 197.218 C 185.886 203.085 191.56 207.988 197.704 211.708 C 200.132 213.181 202.833 214.344 205.808 215.204 C 205.989 215.253 206.181 215.173 206.28 215.005 C 208.014 212.096 209.243 208.329 208.694 204.875 C 207.996 200.505 205.376 196.622 202.634 193.224 C 200.784 190.939 198.813 188.163 196.727 184.888 C 189.499 173.573 187.296 159.161 189.457 145.523 C 189.886 142.812 190.322 140.101 190.752 137.384 C 190.936 136.205 190.788 134.45 190.307 132.122 C 189.447 127.953 186.866 123.458 185.103 119.51 C 182.635 113.963 181.963 108.597 183.092 103.397 C 183.748 100.373 184.862 96.964 186.436 93.167 C 188.823 87.419 191.219 81.913 193.619 76.655 C 194.485 74.758 194.692 74.836 194.245 76.893 C 192.514 84.757 191.594 92.971 191.486 101.529 C 191.417 106.817 192.384 111.496 194.377 115.553 C 198.551 124.038 207.135 131.814 206.585 141.692 C 206.482 143.492 206.389 145.244 206.311 146.963 C 206.02 153.03 209.069 157.545 212.315 162.664 C 213.361 164.319 214.208 166.303 214.596 168.27 C 214.993 170.282 216.265 172.32 218.412 174.381 C 218.584 174.545 218.735 174.526 218.863 174.32 C 220.965 171.001 222.639 168.061 222.556 163.839 C 222.514 161.708 222.307 159.85 221.932 158.265 C 221.154 154.968 220.197 151.385 219.059 147.514 C 217.722 142.951 217.379 138.272 218.032 133.49 C 218.448 130.445 218.906 127.35 219.402 124.192 C 219.419 124.079 219.48 124.034 219.588 124.069 C 219.638 124.083 219.678 124.107 219.711 124.153 C 219.744 124.188 219.767 124.227 219.771 124.275 C 220.691 130.783 221.983 135.952 223.633 139.783 C 224.786 142.446 226.584 145.924 229.041 150.222 C 230.349 152.521 231.492 155.31 232.468 158.597 C 234.812 166.535 233.709 176.423 230.809 183.712 C 229.462 187.097 227.954 190.804 226.283 194.844 C 223.402 201.816 222.167 209.192 222.583 216.972 C 222.671 218.543 222.764 220.064 222.866 221.537 C 222.893 221.928 223.01 221.963 223.213 221.635 C 223.633 220.967 224.083 220.337 224.567 219.742 C 227.413 216.238 230.244 212.774 233.065 209.35 C 237.181 204.366 241.298 198.799 243.837 192.871 C 246.284 187.158 247.006 181.012 246.003 174.446 C 244.961 167.621 242.607 161.585 240.669 155.103 C 238.301 147.183 238.797 139.744 240.36 131.601 C 242.566 120.109 244.194 110.063 245.244 101.475 C 247.016 87.004 248.732 72.948 250.392 59.315 C 250.409 59.165 250.475 59.141 250.581 59.241 C 250.622 59.28 250.65 59.335 250.656 59.393 C 251.224 64.532 251.909 69.9 252.409 74.91 C 255.35 104.393 257.741 133.742 259.587 162.963 C 260.053 170.376 260.272 177.782 261.507 185.02 C 263.819 198.601 268.116 211.775 275.438 222.861 C 275.65 223.183 275.789 223.151 275.849 222.761 C 276.516 218.469 276.937 214.276 277.108 210.177 C 277.46 201.757 275.776 194.006 271.896 186.988 C 269.087 181.919 267.062 177.032 265.914 171.094 C 264.519 163.869 266.229 156.514 269.625 150.142 C 270.998 147.559 272.335 145.073 273.63 142.684 C 276.97 136.514 279.125 129.797 279.893 122.73 C 279.99 121.844 280.137 121.834 280.345 122.701 C 280.97 125.322 281.442 127.985 281.752 130.674 C 282.34 135.725 281.904 140.839 280.444 146.023 C 279.425 149.642 278 153.268 277.769 156.932 C 277.571 160.024 277.916 163.255 278.806 166.631 C 279.572 169.545 281.119 172.244 283.436 174.733 C 283.556 174.862 283.731 174.901 283.89 174.842 C 286.427 173.895 288.395 172.314 289.781 170.095 C 292.303 166.07 293.39 161.212 293.612 156.024 C 293.765 152.511 293.954 149.007 294.186 145.502 C 294.472 141.142 295.157 137.033 296.599 132.899 C 298.021 128.841 299.635 125.248 301.447 122.131 C 304.8 116.371 308.038 111.222 308.338 104.244 C 308.759 94.591 307.461 84.853 305.207 75.531 C 305.185 75.445 305.185 75.357 305.207 75.271 C 305.216 75.228 305.245 75.198 305.287 75.184 C 305.388 75.154 305.463 75.187 305.513 75.286 C 309.592 83.747 312.969 91.423 315.647 98.316 C 318.27 105.062 318.123 111.788 315.198 118.489 C 312.488 124.703 308.269 132.345 309.648 139.516 C 310.328 143.051 310.985 146.509 311.618 149.883 C 312.341 153.719 312.645 157.734 312.539 161.927 C 312.377 167.974 310.985 173.425 308.362 178.286 C 306.591 181.568 304.689 184.546 302.649 187.226 C 298.635 192.504 295.328 197.951 294.68 204.761 C 294.43 207.386 294.43 210.088 294.686 212.863 C 294.916 215.387 295.217 217.848 295.582 220.263 C 295.611 220.446 295.693 220.482 295.828 220.357 C 301.492 215.124 307.548 210.475 313.474 205.599 C 321.053 199.368 324.819 190.632 325.6 180.611 C 325.87 177.202 326.05 173.473 326.147 169.425 C 326.402 158.462 330.083 147.5 339.144 141.548 C 341.425 140.051 343.867 138.762 345.949 136.939 C 351.101 132.419 354.321 125.025 355.445 118.038 C 356.217 113.231 356.651 108.16 356.795 103.114 C 356.939 97.852 357.132 92.524 356.684 87.295 C 356.416 84.187 356.651 84.144 357.396 87.162 C 359.162 94.337 360.825 101.33 362.382 108.144 C 363.298 112.145 363.899 116.699 364.182 121.818 C 364.783 132.771 361.077 145.041 351.439 150.602 C 350.333 151.242 349.283 151.886 348.289 152.544 C 342.67 156.257 341.105 164.622 342.983 170.966 C 344.773 177.022 345.089 182.643 342.433 188.491 C 342.109 189.199 341.618 189.734 341.143 190.314 C 340.887 190.626 340.921 190.671 341.245 190.442 C 343.141 189.106 345.024 187.866 347.049 186.688 C 355.427 181.806 364.107 176.908 372.53 171.779 C 382.111 165.951 391.523 159.92 400.765 153.68 C 403.138 152.08 405.459 150.39 407.725 148.615 C 407.79 148.566 407.883 148.589 407.92 148.67 C 407.956 148.754 407.947 148.838 407.892 148.921 C 406.591 150.895 405.338 152.943 404.132 155.062 C 394.006 172.849 384.103 190.652 374.423 208.467 C 372.527 211.956 370.384 215.401 368.067 218.623 C 367.86 218.91 367.896 218.949 368.179 218.746 C 370.57 216.998 373.215 216.115 376.112 216.096 C 380.065 216.064 383.497 218.543 387.439 219.058 C 391.217 219.548 394.83 218.707 398.285 216.521 C 400.286 215.253 401.407 212.725 402.567 210.613 C 405.497 205.286 410.192 201.796 415.995 199.949 C 419.261 198.908 422.276 198.279 425.038 198.061 C 427.402 197.871 430.468 198.026 434.239 198.521 C 441.777 199.513 448.939 200.698 455.715 202.076 C 455.807 202.095 455.876 202.183 455.876 202.282 L 455.88 202.431 C 455.886 202.492 455.857 202.52 455.797 202.515 C 453.041 202.357 450.146 202.476 447.111 202.872 C 442.841 203.432 438.646 204.23 434.521 205.261 C 426.297 207.318 418.91 211.214 413.873 218.43 C 412.467 220.443 411.352 222.71 409.941 224.659 C 404.349 232.386 395.731 236.221 386.573 236.677 C 384.422 236.787 382.285 236.791 380.163 236.697 C 376.689 236.543 374.496 236.508 373.586 236.593 C 368.072 237.093 363.4 238.356 359.566 240.384 C 350.412 245.226 343.881 252.72 339.977 262.869 C 339.884 263.117 339.977 263.4 340.199 263.522 C 343.917 265.659 348.714 267.239 352.855 265.932 C 355.394 265.133 357.808 264.132 360.089 262.934 C 364.437 260.648 368.96 258.236 373.663 255.688 C 376.352 254.236 379.692 253.126 383.683 252.357 C 385.843 251.947 388.28 251.995 391.003 252.517 C 394.727 253.225 398.39 254.488 401.999 256.317 C 407.069 258.883 411.878 261.427 417.536 258.702 C 419.432 257.788 421.417 256.729 423.484 255.515 C 428.739 252.433 435.283 249.893 440.881 251.094 C 444.012 251.767 447.246 252.649 450.588 253.745 C 455.251 255.271 459.706 256.764 463.952 258.216 C 465.413 258.716 465.381 258.895 463.855 258.751 C 457.389 258.136 450.918 258.23 444.386 259.147 C 437.846 260.068 432.935 262.057 427.634 265.992 C 424.665 268.201 421.768 270.229 418.946 272.072 C 416.989 273.347 414.549 274.658 412.268 275.176 C 404.473 276.924 398.534 271.096 391.078 270.497 C 386.412 270.121 382.392 271.679 379.025 275.176 C 378.914 275.289 378.928 275.388 379.061 275.472 C 383.165 277.9 387.159 280.293 391.055 282.653 C 393.215 283.967 395.778 285.126 398.738 286.133 C 401.07 286.92 403.749 287.386 406.772 287.53 C 411.217 287.738 415.367 287.535 419.225 286.92 C 419.632 286.855 419.678 286.965 419.367 287.251 C 419.234 287.376 419.072 287.48 418.891 287.56 C 414.086 289.721 409.238 291.44 404.341 292.713 C 397.074 294.602 389.362 294.532 381.212 292.506 C 373.381 290.564 365.759 287.232 358.021 284.54 C 351.172 282.163 346.531 284.388 342.863 290.77 C 342.697 291.064 342.748 291.444 342.988 291.672 C 347.728 296.187 352.605 300.955 358.234 304.266 C 363.95 307.63 370.102 307.978 376.352 306.719 C 379.376 306.11 382.804 305.282 386.634 304.24 C 390.583 303.166 393.627 302.571 395.76 302.452 C 398.645 302.288 401.75 302.552 405.076 303.231 C 411.157 304.469 417.263 306.084 423.46 307.279 C 430.898 308.711 438.717 309.935 446.907 310.946 C 458.531 312.383 468.754 313.568 477.569 314.495 C 485.025 315.284 492.579 316.263 499.892 316.894 C 499.934 316.898 499.966 316.913 499.988 316.949 C 500.003 316.962 500.003 316.978 499.994 316.998 C 499.98 317.043 499.946 317.071 499.901 317.078 C 496.385 317.528 492.851 317.737 489.341 318.143 C 478.656 319.383 467.991 320.619 457.347 321.859 C 451.162 322.577 443.781 324.515 438.104 325.343 C 432.828 326.113 427.134 326.522 421.013 326.567 C 412.653 326.631 404.242 325.839 396.181 323.392 C 393.248 322.499 390.042 321.556 386.568 320.561 C 386.54 320.555 386.513 320.551 386.481 320.546 C 386.108 320.516 385.93 320.575 385.949 320.719 C 385.963 320.803 386 320.864 386.069 320.909 C 391.893 324.596 397.527 329.016 401.702 334.497"/>
  <path style="fill-opacity: 1; fill-rule: nonzero; stroke: none; fill: rgb(16, 14, 17);" id="path18" d="M 337.997 308.477 L 338.604 334.207 C 319.456 334.207 160.981 337.325 160.653 334.207 C 160.122 321.331 161.977 304.588 165.881 292.406 C 175.158 264.356 196.294 241.901 222.959 233.262 C 236.302 228.941 249.722 227.827 263.214 229.917 C 277.186 232.083 290.04 237.599 301.775 246.464 C 304.362 248.418 306.775 250.479 309.02 252.649 C 322.414 265.61 331.499 281.365 336.272 299.905 C 336.993 302.694 337.48 305.614 337.997 308.477"/>
  <path style="fill-opacity: 1; fill-rule: nonzero; stroke: none; fill: rgb(16, 14, 17);" id="path20" d="M 155.94 303.701 C 154.127 312.637 153.139 328.792 154.272 334.681 C 149.424 330.071 132.147 332.495 127.258 332.44 C 125.006 332.415 107.11 326.372 106.638 326.092 C 102.426 323.595 99.621 322.424 95.599 320.234 C 92.503 318.547 89.381 319.072 85.959 320.042 C 80.732 321.524 74.185 322.259 69.522 325.035 C 68.328 325.744 66.447 326.715 65.08 326.454 C 59.661 325.427 54.056 324.441 48.256 323.494 C 43.556 322.726 36.202 321.78 26.198 320.652 C 17.446 319.659 8.949 318.35 0.105 317.013 C 0.031 317.003 -0.014 316.923 0.004 316.849 C 0.018 316.784 0.055 316.756 0.11 316.75 C 5.475 316.437 12.021 315.609 16.503 315.139 C 29.232 313.806 41.957 312.428 54.672 311.015 C 55.739 310.897 56.781 310.778 57.785 310.66 C 70.657 309.143 82.762 307.675 94.107 306.263 C 102.411 305.228 110.612 305.639 118.766 305.53 C 128.123 305.406 136.829 303.949 144.88 301.168 C 149.007 299.747 152.35 281.619 156.536 279.661 C 156.689 279.593 161.964 281.7 161.922 281.874 L 155.94 303.701"/>
  <path style="fill: rgb(16, 14, 17); fill-opacity: 1; fill-rule: nonzero; stroke: none;" id="path-4" d="M 239.117 328.588 C 239.268 327.876 239.904 327.437 240.535 327.608 C 241.166 327.78 241.555 328.495 241.402 329.208"/>
  <path style="fill: rgb(16, 14, 17); fill-opacity: 1; fill-rule: nonzero; stroke: none;" id="path-7" d="M 255.305 329.168 C 255.174 328.45 255.582 327.748 256.219 327.598 C 256.847 327.447 257.476 327.911 257.608 328.628"/>
  <path style="fill: rgb(16, 14, 17); fill-opacity: 1; fill-rule: nonzero; stroke: none;" id="path-8" d="M 209.399 318.062 C 209.929 317.642 210.662 317.786 211.037 318.386 C 211.41 318.985 211.282 319.813 210.75 320.234"/>
  <path style="fill: rgb(16, 14, 17); fill-opacity: 1; fill-rule: nonzero; stroke: none;" id="path-9" d="M 190.29 298.467 C 190.899 298.226 191.573 298.597 191.784 299.29 C 191.996 299.983 191.67 300.738 191.055 300.975"/>
  <path style="fill: rgb(16, 14, 17); fill-opacity: 1; fill-rule: nonzero; stroke: none;" id="path-10" d="M 307.36 300.975 C 306.747 300.738 306.421 299.983 306.633 299.29 C 306.844 298.597 307.514 298.226 308.127 298.467"/>
  <path style="fill: rgb(16, 14, 17); fill-opacity: 1; fill-rule: nonzero; stroke: none;" id="path-11" d="M 223.479 325.592 C 223.856 324.995 224.593 324.857 225.118 325.282 C 225.647 325.707 225.77 326.537 225.393 327.133"/>
  <path style="fill: rgb(16, 14, 17); fill-opacity: 1; fill-rule: nonzero; stroke: none;" id="path-12" d="M 289.264 318.73 C 288.742 318.292 288.634 317.463 289.021 316.875 C 289.409 316.286 290.145 316.163 290.665 316.599"/>
  <path style="fill: rgb(16, 14, 17); fill-opacity: 1; fill-rule: nonzero; stroke: none;" id="path-13" d="M 274.015 327.133 C 273.638 326.537 273.761 325.707 274.289 325.282 C 274.817 324.857 275.552 324.995 275.929 325.592"/>
  <path style="fill: rgb(27, 23, 29); fill-opacity: 1; fill-rule: nonzero; stroke: none;" id="path-14" d="M 268.735 248.296 L 264.653 257.86 L 262.026 256.404 L 266.235 246.914 L 268.735 248.296"/>
  <path style="fill: rgb(27, 23, 29); fill-opacity: 1; fill-rule: nonzero; stroke: none;" id="path-15" d="M 260.551 267.409 L 256.427 276.946 L 253.669 275.419 L 257.837 265.905 L 260.551 267.409"/>
  <path style="fill: rgb(27, 23, 29); fill-opacity: 1; fill-rule: nonzero; stroke: none;" id="path-16" d="M 252.3 286.484 L 248.15 296.007 L 245.363 294.463 L 249.502 284.933 L 252.3 286.484"/>
  <path style="fill: rgb(27, 23, 29); fill-opacity: 1; fill-rule: nonzero; stroke: none;" id="path-17" d="M 243.983 305.522 L 239.815 315.036 L 237.115 313.538 L 241.238 304.002 L 243.983 305.522"/>
  <path style="fill: rgb(27, 23, 29); fill-opacity: 1; fill-rule: nonzero; stroke: none;" id="path-18" d="M 235.831 245.935 L 239.402 255.754 L 236.684 256.984 L 233.245 247.105 L 235.831 245.935"/>
  <path style="fill: rgb(27, 23, 29); fill-opacity: 1; fill-rule: nonzero; stroke: none;" id="path-19" d="M 242.951 265.581 L 246.477 275.419 L 243.626 276.712 L 240.143 266.852 L 242.951 265.581"/>
  <path style="fill: rgb(27, 23, 29); fill-opacity: 1; fill-rule: nonzero; stroke: none;" id="path-20" d="M 250.005 285.257 L 253.501 295.11 L 250.621 296.413 L 247.109 286.569 L 250.005 285.257"/>
  <path style="fill: rgb(27, 23, 29); fill-opacity: 1; fill-rule: nonzero; stroke: none;" id="path-21" d="M 256.983 304.967 L 260.465 314.825 L 257.675 316.09 L 254.149 306.253 L 256.983 304.967"/>
  <path style="fill: rgb(27, 23, 29); fill-opacity: 1; fill-rule: nonzero; stroke: none;" id="path-23" d="M 209.032 268.453 L 217.769 272.384 L 216.68 275.4 L 207.995 271.323 L 209.032 268.453"/>
  <path style="fill: rgb(27, 23, 29); fill-opacity: 1; fill-rule: nonzero; stroke: none;" id="path-24" d="M 226.502 276.325 L 235.221 280.307 L 234.068 283.499 L 225.367 279.47 L 226.502 276.325"/>
  <path style="fill: rgb(27, 23, 29); fill-opacity: 1; fill-rule: nonzero; stroke: none;" id="path-25" d="M 243.941 284.288 L 252.656 288.28 L 251.476 291.545 L 242.77 287.526 L 243.941 284.288"/>
  <path style="fill: rgb(27, 23, 29); fill-opacity: 1; fill-rule: nonzero; stroke: none;" id="path-26" d="M 261.357 292.309 L 270.057 296.338 L 268.916 299.506 L 260.196 295.525 L 261.357 292.309"/>
  <path style="fill: rgb(27, 23, 29); fill-opacity: 1; fill-rule: nonzero; stroke: none;" id="path-27" d="M 278.755 300.384 L 287.439 304.462 L 286.376 307.401 L 277.64 303.469 L 278.755 300.384"/>
  <path style="fill: rgb(27, 23, 29); fill-opacity: 1; fill-rule: nonzero; stroke: none;" id="path-28" d="M 207.99 306.198 L 216.675 302.122 L 217.764 305.137 L 209.027 309.068 L 207.99 306.198"/>
  <path style="fill: rgb(27, 23, 29); fill-opacity: 1; fill-rule: nonzero; stroke: none;" id="path-29" d="M 225.364 298.056 L 234.066 294.028 L 235.219 297.221 L 226.498 301.199 L 225.364 298.056"/>
  <path style="fill: rgb(27, 23, 29); fill-opacity: 1; fill-rule: nonzero; stroke: none;" id="path-30" d="M 242.769 290.003 L 251.476 285.988 L 252.654 289.253 L 243.938 293.243 L 242.769 290.003"/>
  <path style="fill: rgb(27, 23, 29); fill-opacity: 1; fill-rule: nonzero; stroke: none;" id="path-31" d="M 260.196 282.01 L 268.916 278.032 L 270.059 281.198 L 261.357 285.225 L 260.196 282.01"/>
  <path style="fill: rgb(27, 23, 29); fill-opacity: 1; fill-rule: nonzero; stroke: none;" id="path-32" d="M 277.643 274.069 L 286.379 270.14 L 287.44 273.08 L 278.757 277.154 L 277.643 274.069"/>
  <path style="fill: rgb(27, 23, 29); fill-opacity: 1; fill-rule: nonzero; stroke: none;" id="path-33" d="M 214.041 324.818 L 220.805 317.445 L 222.824 319.831 L 215.978 327.11 L 214.041 324.818"/>
  <path style="fill: rgb(27, 23, 29); fill-opacity: 1; fill-rule: nonzero; stroke: none;" id="path-34" d="M 227.581 310.083 L 234.374 302.741 L 236.481 305.235 L 229.661 312.544 L 227.581 310.083"/>
  <path style="fill: rgb(27, 23, 29); fill-opacity: 1; fill-rule: nonzero; stroke: none;" id="path-35" d="M 241.166 295.4 L 247.96 288.06 L 250.12 290.616 L 243.301 297.925 L 241.166 295.4"/>
  <path style="fill: rgb(27, 23, 29); fill-opacity: 1; fill-rule: nonzero; stroke: none;" id="path-36" d="M 254.775 280.748 L 261.595 273.438 L 263.708 275.939 L 256.917 283.279 L 254.775 280.748"/>
  <path style="fill: rgb(27, 23, 29); fill-opacity: 1; fill-rule: nonzero; stroke: none;" id="path-37" d="M 268.414 266.129 L 275.245 258.834 L 277.283 261.243 L 270.502 268.598 L 268.414 266.129"/>
  <path style="fill: rgb(27, 23, 29); fill-opacity: 1; fill-rule: nonzero; stroke: none;" id="path-38" d="M 282.092 251.558 L 284.048 253.871 L 282.092 251.558"/>
  <path style="fill: rgb(27, 23, 29); fill-opacity: 1; fill-rule: nonzero; stroke: none;" id="path-39" d="M 290.012 334.386 L 291.869 332.19"/>
  <path style="fill: rgb(27, 23, 29); fill-opacity: 1; fill-rule: nonzero; stroke: none;" id="path-40" d="M 283.166 327.11 L 276.32 319.831 L 278.337 317.445 L 285.103 324.818 L 283.166 327.11"/>
  <path style="fill: rgb(27, 23, 29); fill-opacity: 1; fill-rule: nonzero; stroke: none;" id="path-41" d="M 269.483 312.544 L 262.663 305.235 L 264.769 302.741 L 271.563 310.083 L 269.483 312.544"/>
  <path style="fill: rgb(27, 23, 29); fill-opacity: 1; fill-rule: nonzero; stroke: none;" id="path-42" d="M 255.843 297.925 L 249.023 290.616 L 251.183 288.06 L 257.977 295.4 L 255.843 297.925"/>
  <path style="fill: rgb(27, 23, 29); fill-opacity: 1; fill-rule: nonzero; stroke: none;" id="path-43" d="M 242.229 283.279 L 235.435 275.939 L 237.548 273.438 L 244.368 280.748 L 242.229 283.279"/>
  <path style="fill: rgb(27, 23, 29); fill-opacity: 1; fill-rule: nonzero; stroke: none;" id="path-44" d="M 228.642 268.598 L 221.861 261.243 L 223.898 258.834 L 230.729 266.129 L 228.642 268.598"/>
  <path style="fill: rgb(27, 23, 29); fill-opacity: 1; fill-rule: nonzero; stroke: none;" id="path-45" d="M 215.095 253.871 L 217.051 251.558 L 215.095 253.871"/>
  <path style="fill: rgb(27, 23, 29); fill-opacity: 1; fill-rule: nonzero; stroke: none;" id="path-46" d="M 328.858 290.071 L 328.858 287.483"/>
  <path style="fill: rgb(27, 23, 29); fill-opacity: 1; fill-rule: nonzero; stroke: none;" id="path-47" d="M 319.456 290.171 L 310.051 290.269 L 310.051 287.262 L 319.456 287.36 L 319.456 290.171"/>
  <path style="fill: rgb(27, 23, 29); fill-opacity: 1; fill-rule: nonzero; stroke: none;" id="path-48" d="M 300.644 290.334 L 291.238 290.398 L 291.238 287.133 L 300.644 287.197 L 300.644 290.334"/>
  <path style="fill: rgb(27, 23, 29); fill-opacity: 1; fill-rule: nonzero; stroke: none;" id="path-49" d="M 281.832 290.46 L 272.427 290.482 L 272.427 287.05 L 281.832 287.071 L 281.832 290.46"/>
  <path style="fill: rgb(27, 23, 29); fill-opacity: 1; fill-rule: nonzero; stroke: none;" id="path-50" d="M 263.02 290.503 L 253.614 290.524 L 253.614 287.007 L 263.02 287.028 L 263.02 290.503"/>
  <path style="fill: rgb(27, 23, 29); fill-opacity: 1; fill-rule: nonzero; stroke: none;" id="path-51" d="M 244.208 290.524 L 234.803 290.501 L 234.803 287.03 L 244.208 287.007 L 244.208 290.524"/>
  <path style="fill: rgb(27, 23, 29); fill-opacity: 1; fill-rule: nonzero; stroke: none;" id="path-52" d="M 225.397 290.48 L 215.99 290.458 L 215.99 287.072 L 225.397 287.051 L 225.397 290.48"/>
  <path style="fill: rgb(27, 23, 29); fill-opacity: 1; fill-rule: nonzero; stroke: none;" id="path-53" d="M 206.586 290.395 L 197.179 290.329 L 197.179 287.202 L 206.586 287.137 L 206.586 290.395"/>
  <path style="fill: rgb(27, 23, 29); fill-opacity: 1; fill-rule: nonzero; stroke: none;" id="path-54" d="M 187.773 290.265 L 178.367 290.161 L 178.367 287.371 L 187.773 287.266 L 187.773 290.265"/>
  <path style="fill: rgb(27, 23, 29); fill-opacity: 1; fill-rule: nonzero; stroke: none;" id="path-55" d="M 251.085 259.919 L 251.105 270.532 L 248.039 270.532 L 248.059 259.919 L 251.085 259.919"/>
  <path style="fill: rgb(27, 23, 29); fill-opacity: 1; fill-rule: nonzero; stroke: none;" id="path-56" d="M 251.124 281.145 L 251.135 291.756 L 248.009 291.756 L 248.019 281.145 L 251.124 281.145"/>
  <path style="fill: rgb(27, 23, 29); fill-opacity: 1; fill-rule: nonzero; stroke: none;" id="path-57" d="M 251.114 302.369 L 251.095 312.981 L 248.049 312.981 L 248.029 302.369 L 251.114 302.369"/>
  <path style="fill: rgb(27, 23, 29); fill-opacity: 1; fill-rule: nonzero; stroke: none;" id="path-58" d="M 251.075 323.595 L 251.02 334.207 L 248.123 334.207 L 248.068 323.595 L 251.075 323.595"/>
  <path style="fill: rgb(255, 255, 255); fill-opacity: 1; fill-rule: nonzero; stroke: none;" id="path-59" d="M 249.572 243.067 C 205.175 243.788 171.29 285.325 171.29 285.325 C 183.149 302.37 197.65 318.073 215.457 326.845 C 234.557 336.255 259.457 336.944 279.044 328.937 C 298.195 321.111 313.815 305.017 326.407 287.378 C 326.506 287.237 327.893 285.374 327.852 285.325 C 327.851 285.323 293.967 243.788 249.572 243.067"/>
  <path style="fill: rgb(16, 14, 17); fill-opacity: 1; fill-rule: nonzero; stroke: none;" id="path-60" d="M 221.275 326.845 C 203.467 318.073 188.966 302.37 177.108 285.325 C 177.108 285.325 209.525 245.621 252.48 243.198 C 251.514 243.143 250.547 243.083 249.572 243.067 C 205.175 243.788 171.29 285.325 171.29 285.325 C 183.149 302.37 197.65 318.073 215.457 326.845 C 226.558 332.314 239.616 334.815 252.453 334.399 C 241.539 333.998 230.7 331.49 221.275 326.845"/>
  <path style="fill: rgb(16, 14, 17); fill-opacity: 1; fill-rule: nonzero; stroke: none;" id="path-61" d="M 277.789 326.845 C 295.596 318.073 310.095 302.37 321.954 285.325 C 321.954 285.325 289.538 245.621 246.582 243.198 C 247.55 243.143 248.514 243.083 249.492 243.067 C 293.888 243.788 327.772 285.325 327.772 285.325 C 315.913 302.37 301.412 318.073 283.605 326.845 C 272.506 332.314 259.446 334.815 246.608 334.399 C 257.523 333.998 268.362 331.49 277.789 326.845"/>
  <path style="fill: rgb(16, 14, 17); fill-opacity: 1; fill-rule: nonzero; stroke: none;" id="path-62" d="M 277.341 288.755 C 277.341 306.059 264.907 320.088 249.572 320.088 C 234.234 320.088 221.801 306.059 221.801 288.755 C 221.801 271.45 234.234 257.424 249.572 257.424 C 264.907 257.424 277.341 271.45 277.341 288.755"/>
  <path style="fill: rgb(16, 14, 17); fill-opacity: 1; fill-rule: nonzero; stroke: none;" id="path-63" d="M 249.572 244.864 C 228.121 244.864 210.67 264.553 210.67 288.755 C 210.67 312.957 228.121 332.646 249.572 332.646 C 271.022 332.646 288.472 312.957 288.472 288.755 C 288.472 264.553 271.022 244.864 249.572 244.864 Z M 249.572 334.414 C 227.257 334.414 209.102 313.932 209.102 288.755 C 209.102 263.578 227.257 243.096 249.572 243.096 C 271.886 243.096 290.04 263.578 290.04 288.755 C 290.04 313.932 271.886 334.414 249.572 334.414"/>
  <path style="fill: rgb(255, 255, 255); fill-opacity: 1; fill-rule: nonzero; stroke: none;" id="path-64" d="M 249.978 291.169 C 243.878 291.169 238.557 287.429 235.706 281.874 C 234.302 284.61 233.495 287.785 233.495 291.176 C 233.495 301.447 240.874 309.774 249.978 309.774 C 259.08 309.774 266.462 301.447 266.462 291.176 C 266.462 287.785 265.652 284.61 264.247 281.874 C 261.397 287.429 256.076 291.169 249.978 291.169"/>
  <path style="fill: rgb(255, 255, 255); fill-opacity: 1; fill-rule: nonzero; stroke: none;" id="path-65" d="M 255.533 277.685 C 255.533 281.145 253.045 283.951 249.978 283.951 C 246.909 283.951 244.422 281.145 244.422 277.685 C 244.422 274.223 246.909 271.417 249.978 271.417 C 253.045 271.417 255.533 274.223 255.533 277.685"/>
  <path style="fill: rgb(255, 255, 255); fill-opacity: 1; fill-rule: nonzero; stroke: none;" id="path-66" d="M 264.549 288.852 C 264.384 288.702 264.357 288.429 264.491 288.242 C 264.625 288.057 264.866 288.026 265.031 288.177 C 265.197 288.326 265.223 288.599 265.089 288.785 C 264.956 288.973 264.715 289.001 264.549 288.852"/>
  <path style="fill: rgb(27, 23, 29); fill-opacity: 1; fill-rule: nonzero; stroke: none;" id="path-67" d="M 252.233 275.983 L 252.331 275.873 L 252.426 275.983 L 252.331 276.091 L 252.233 275.983"/>
  <path style="fill: rgb(27, 23, 29); fill-opacity: 1; fill-rule: nonzero; stroke: none;" id="path-68" d="M 249.943 279.553 L 250.038 279.445 L 250.135 279.553 L 250.038 279.661 L 249.943 279.553"/>
  <path style="fill: rgb(27, 23, 29); fill-opacity: 1; fill-rule: nonzero; stroke: none;" id="path-69" d="M 241.089 303.84 L 240.994 303.732 L 241.089 303.624 L 241.186 303.732 L 241.089 303.84"/>
  <path style="fill: rgb(27, 23, 29); fill-opacity: 1; fill-rule: nonzero; stroke: none;" id="path-70" d="M 246.044 301.16 C 246.044 301.043 246.128 300.947 246.233 300.947 C 246.336 300.947 246.42 301.043 246.42 301.16 C 246.42 301.277 246.336 301.372 246.233 301.372 C 246.128 301.372 246.044 301.277 246.044 301.16"/>
  <path style="fill: rgb(27, 23, 29); fill-opacity: 1; fill-rule: nonzero; stroke: none;" id="path-71" d="M 257.293 301.16 C 257.293 301.043 257.377 300.947 257.48 300.947 C 257.585 300.947 257.669 301.043 257.669 301.16 C 257.669 301.277 257.585 301.372 257.48 301.372 C 257.377 301.372 257.293 301.277 257.293 301.16"/>
  <path style="fill: rgb(27, 23, 29); fill-opacity: 1; fill-rule: nonzero; stroke: none;" id="path-72" d="M 236.274 291.001 C 236.274 290.851 236.381 290.732 236.514 290.732 C 236.647 290.732 236.753 290.851 236.753 291.001 C 236.753 291.152 236.647 291.272 236.514 291.272 C 236.381 291.272 236.274 291.152 236.274 291.001"/>
  <path style="fill: rgb(27, 23, 29); fill-opacity: 1; fill-rule: nonzero; stroke: none;" id="path-73" d="M 247.094 281.46 L 247.141 281.405 L 247.19 281.46 L 247.141 281.514 L 247.094 281.46"/>
  <path style="fill: rgb(27, 23, 29); fill-opacity: 1; fill-rule: nonzero; stroke: none;" id="path-74" d="M 245.414 276.036 L 245.367 276.091 L 245.319 276.036 L 245.367 275.983 L 245.414 276.036"/>
  <path style="fill: rgb(255, 255, 255); fill-opacity: 1; fill-rule: nonzero; stroke: none;" id="path-75" d="M 261.653 288.785 L 261.605 288.84 L 261.556 288.785 L 261.605 288.732 L 261.653 288.785"/>
  <path style="fill: rgb(27, 23, 29); fill-opacity: 1; fill-rule: nonzero; stroke: none;" id="path-76" d="M 253.624 296.688 L 253.671 296.635 L 253.717 296.688 L 253.671 296.741 L 253.624 296.688"/>
  <path style="fill: rgb(27, 23, 29); fill-opacity: 1; fill-rule: nonzero; stroke: none;" id="path-77" d="M 253.814 291.056 L 253.863 291.001 L 253.909 291.056 L 253.863 291.109 L 253.814 291.056"/>
  <path style="fill: rgb(27, 23, 29); fill-opacity: 1; fill-rule: nonzero; stroke: none;" id="path-78" d="M 261.138 303.205 L 261.144 303.28 L 261.077 303.289 L 261.071 303.212 L 261.138 303.205"/>
  <path style="fill: rgb(27, 23, 29); fill-opacity: 1; fill-rule: nonzero; stroke: none;" id="path-79" d="M 237.432 301.107 L 237.48 301.054 L 237.528 301.107 L 237.48 301.16 L 237.432 301.107"/>
  <path style="fill: rgb(27, 23, 29); fill-opacity: 1; fill-rule: nonzero; stroke: none;" id="path-80" d="M 254.216 302.204 L 254.168 302.151 L 254.216 302.098 L 254.263 302.151 L 254.216 302.204"/>
  <path style="fill: rgb(27, 23, 29); fill-opacity: 1; fill-rule: nonzero; stroke: none;" id="path-81" d="M 248.532 303.677 L 248.483 303.732 L 248.436 303.677 L 248.483 303.624 L 248.532 303.677"/>
  <path style="fill: rgb(27, 23, 29); fill-opacity: 1; fill-rule: nonzero; stroke: none;" id="path-82" d="M 249.515 307.926 L 249.468 307.873 L 249.515 307.818 L 249.564 307.873 L 249.515 307.926"/>
  <path style="fill: rgb(255, 255, 255); fill-opacity: 1; fill-rule: nonzero; stroke: none;" id="path-83" d="M 252.123 309.296 L 252.1 309.351 L 252.076 309.296 L 252.1 309.243 L 252.123 309.296"/>
  <path style="fill: rgb(27, 23, 29); fill-opacity: 1; fill-rule: nonzero; stroke: none;" id="path-84" d="M 262.565 299.634 L 262.571 299.71 L 262.504 299.718 L 262.497 299.642 L 262.565 299.634"/>
  <path style="fill: rgb(27, 23, 29); fill-opacity: 1; fill-rule: nonzero; stroke: none;" id="path-85" d="M 248.349 274.48 L 248.396 274.426 L 248.445 274.48 L 248.396 274.535 L 248.349 274.48"/>
  <path style="fill: rgb(27, 23, 29); fill-opacity: 1; fill-rule: nonzero; stroke: none;" id="path-86" d="M 250.087 272.188 L 250.038 272.135 L 250.087 272.079 L 250.135 272.135 L 250.087 272.188"/>
  <path style="fill: rgb(27, 23, 29); fill-opacity: 1; fill-rule: nonzero; stroke: none;" id="path-87" d="M 237.528 296.741 L 237.575 296.688 L 237.623 296.741 L 237.575 296.796 L 237.528 296.741"/>
  <path style="fill: rgb(27, 23, 29); fill-opacity: 1; fill-rule: nonzero; stroke: none;" id="path-88" d="M 252.093 293.53 L 252.046 293.477 L 252.093 293.424 L 252.141 293.477 L 252.093 293.53"/>
  <path style="fill: rgb(27, 23, 29); fill-opacity: 1; fill-rule: nonzero; stroke: none;" id="path-89" d="M 253.767 277.318 L 253.717 277.371 L 253.671 277.318 L 253.717 277.264 L 253.767 277.318"/>
  <path style="fill: rgb(27, 23, 29); fill-opacity: 1; fill-rule: nonzero; stroke: none;" id="path-90" d="M 248.349 279.146 L 248.396 279.092 L 248.445 279.146 L 248.396 279.2 L 248.349 279.146"/>
  <path style="fill: rgb(27, 23, 29); fill-opacity: 1; fill-rule: nonzero; stroke: none;" id="path-91" d="M 242.47 298.995 L 242.566 298.887 L 242.662 298.995 L 242.566 299.101 L 242.47 298.995"/>
  <path style="fill: rgb(27, 23, 29); fill-opacity: 1; fill-rule: nonzero; stroke: none;" id="path-92" d="M 243.348 291.903 L 243.251 291.795 L 243.348 291.687 L 243.443 291.795 L 243.348 291.903"/>
  <path style="fill: rgb(27, 23, 29); fill-opacity: 1; fill-rule: nonzero; stroke: none;" id="path-93" d="M 258.587 292.467 L 258.682 292.358 L 258.779 292.467 L 258.682 292.575 L 258.587 292.467"/>
  <path style="fill: rgb(27, 23, 29); fill-opacity: 1; fill-rule: nonzero; stroke: none;" id="path-94" d="M 249.716 293.124 L 249.812 293.019 L 249.908 293.124 L 249.812 293.233 L 249.716 293.124"/>
  <path style="fill: rgb(27, 23, 29); fill-opacity: 1; fill-rule: nonzero; stroke: none;" id="path-95" d="M 248.579 297.011 L 248.483 296.902 L 248.579 296.794 L 248.675 296.902 L 248.579 297.011"/>
  <path style="fill: rgb(27, 23, 29); fill-opacity: 1; fill-rule: nonzero; stroke: none;" id="path-96" d="M 252.093 305.962 L 252.189 305.854 L 252.285 305.962 L 252.189 306.07 L 252.093 305.962"/>
  <path style="fill: rgb(27, 23, 29); fill-opacity: 1; fill-rule: nonzero; stroke: none;" id="path-97" d="M 244.422 295.526 L 244.326 295.418 L 244.422 295.312 L 244.519 295.418 L 244.422 295.526"/>
  <path style="fill: rgb(27, 23, 29); fill-opacity: 1; fill-rule: nonzero; stroke: none;" id="path-98" d="M 252.772 281.242 L 252.676 281.134 L 252.772 281.027 L 252.869 281.134 L 252.772 281.242"/>
  <path style="fill: rgb(27, 23, 29); fill-opacity: 1; fill-rule: nonzero; stroke: none;" id="path-99" d="M 247.776 292.467 L 247.872 292.36 L 247.968 292.467 L 247.872 292.575 L 247.776 292.467"/>
  <path style="fill: rgb(27, 23, 29); fill-opacity: 1; fill-rule: nonzero; stroke: none;" id="path-100" d="M 261.88 295.822 C 261.88 295.54 262.084 295.312 262.335 295.312 C 262.587 295.312 262.789 295.54 262.789 295.822 C 262.789 296.106 262.587 296.334 262.335 296.334 C 262.084 296.334 261.88 296.106 261.88 295.822"/>
  <path style="fill: rgb(16, 14, 17); fill-opacity: 1; fill-rule: nonzero; stroke: none;" id="path-101" d="M 288.282 265.298 C 293.56 270.67 296.937 278.895 296.937 288.12 C 296.937 297.807 293.213 306.395 287.476 311.732 C 287.929 311.549 288.378 311.36 288.821 311.157 C 298.631 306.669 306.633 297.443 313.084 287.331 C 313.134 287.25 313.844 286.183 313.824 286.154 C 313.824 286.153 303.47 271.956 288.282 265.298"/>
  <path style="fill: rgb(16, 14, 17); fill-opacity: 1; fill-rule: nonzero; stroke: none;" id="path-102" d="M 210.637 265.298 C 205.361 270.67 201.983 278.895 201.983 288.12 C 201.983 297.807 205.707 306.395 211.444 311.732 C 210.991 311.549 210.541 311.36 210.098 311.157 C 200.288 306.669 192.287 297.443 185.836 287.331 C 185.786 287.25 185.075 286.183 185.096 286.154 C 185.096 286.153 195.449 271.956 210.637 265.298"/>
</svg>