<?xml version="1.0" encoding="utf-8"?>
<svg viewBox="0 0 500 500" xmlns="http://www.w3.org/2000/svg">
  <defs/>
  <g id="g8" transform="matrix(1.333333, 0, 0, -1.333333, -2324.147217, 2247.792725)">
    <g id="g10" transform="scale(0.1)">
      <path d="M 45005,5 H 5 V 30005 H 45005 V 5" style="fill:#ffffff;fill-opacity:1;fill-rule:nonzero;stroke:none" id="path12"/>
      <path d="M 45005,5 H 5 v 30000 h 45000 z" style="fill:none;stroke:#211d1d;stroke-width:10;stroke-linecap:butt;stroke-linejoin:miter;stroke-miterlimit:10;stroke-dasharray:none;stroke-opacity:1" id="path14"/>
      <path d="M 25931.5 19142 C 26239.2 19211.8 26553.1 19276.8 26872.7 19337 C 27021.5 19364.9 27178.4 19373.3 27323.9 19415.7 C 27631.7 19505.6 27832.3 19785.9 27980.3 20056.6 C 28077.5 20234.1 28173.8 20405.5 28269 20570.8 C 28336.5 20687.3 28422.9 20805.4 28518.6 20903.4 C 28693.3 21081.6 28846.6 21245.1 28978.7 21394.2 C 29267.6 21719.7 29636.1 22143 30084 22663.8 C 30087 22667.6 30086.8 22671.1 30083.5 22674.4 L 30077.6 22680 C 30076.3 22681.3 30075.1 22681.5 30073.5 22680.3 C 29586.5 22262.1 29098.8 21860.9 28601.6 21429 C 28558.2 21391.1 28513 21353.3 28473.9 21310.7 C 28185.5 20996.8 27937.1 20751.3 27585.5 20585.7 C 27429.1 20512.4 27273.9 20441.8 27119.8 20374 C 26678 20180 26341.8 19849.6 26073.2 19453.8 C 26009.2 19359.6 25965 19255.7 25912.7 19155.4 C 25910.2 19150.9 25912.4 19145 25917.3 19143 C 25921.8 19141.2 25926.7 19141 25931.5 19142 M 17464.5 20573.3 C 17215.7 20678.2 17004.7 20813.2 16831.5 20978.5 C 16740.4 21065.6 16646.2 21164.9 16548.4 21276.6 C 16515.9 21313.7 16481.4 21348 16444.6 21379.2 C 16044.6 21718.9 15641.7 22067.1 15234.4 22411.1 C 15118.4 22508.9 15005.4 22611.9 14895.4 22719.9 C 14891.4 22723.9 14884.8 22724.2 14880.7 22720.4 L 14874.4 22714.5 C 14871.1 22711.7 14870.6 22706.9 14873.3 22703.6 C 15317.2 22160 15767.6 21645.3 16224.9 21159.8 C 16264.3 21117.9 16365.3 21019.4 16527.8 20864.8 C 16675.4 20724.1 16801.3 20547.9 16905.7 20336.1 C 17000.4 20143.4 17093.6 19965.7 17185.2 19802.9 C 17286.3 19623.2 17447 19451 17640.7 19375.8 C 17855.5 19292.3 18098.3 19272.5 18326.8 19259.6 C 18613.5 19243.3 18886.4 19207.8 19145.4 19153.2 C 19153 19151.6 19159.1 19159.8 19155.6 19166.9 C 18937.7 19593.2 18634.8 19934.5 18246.6 20190.1 C 18014.5 20343 17727.6 20462.3 17464.5 20573.3 M 29988.7 14387.2 C 29851.9 14442.8 29724.7 14483.5 29606.9 14508.9 C 29389 14556.1 29159.7 14519.3 28944.2 14454.3 C 28520.1 14326 27758.901 14273.911 27750.001 14271.111 C 27741.201 14271.911 27789.9 15206.4 27691.6 15724.8 C 27622.5 16127 27512.1 16475.2 27358.2 16840.3 C 27156.3 17320.2 26874.3 17781.3 26550.8 18166 C 25843.4 19007.7 24964.8 19574.9 23914.9 19867.9 C 23617.1 19951 23279.9 20009.6 22902.8 20043.4 C 22206.8 20105.6 21491.3 20008.6 20829.4 19790.7 C 20049.4 19534.3 19369.6 19115.1 18790.2 18533.1 C 18378.1 18119.2 18044.7 17656.6 17789.8 17145.5 C 17732.7 17031 17677.6 16918.5 17624.5 16807.5 C 17619.9 16798.1 17612.6 16792.3 17602.7 16789.5 C 17182.9 16677 16752.3 16654.9 16330.8 16651.1 C 16222.9 16650.1 16116.8 16639.2 16012.9 16618.6 C 15777.3 16571.9 15544.9 16467.3 15317.4 16414 C 15023.4 16345.1 14722.8 16342.6 14415.8 16406.3 C 14253 16439.9 14076.6 16478.5 13886.1 16522.4 C 13637.8 16579.5 13400.2 16592.2 13173.2 16560 C 13128 16553.6 13124.9 16562.2 13163.8 16586.1 C 13352.2 16701.6 13560.1 16774.8 13787.4 16805.7 C 14004.7 16835.4 14204.5 16854.2 14386.6 16862.4 C 14504.7 16867.7 14596.8 16878.6 14663.1 16894.9 C 14820 16933.7 14975.7 17004.8 15105.7 17117 C 15170.7 17173.2 15231.1 17227.2 15287 17279.5 C 15295.9 17287.9 15293.3 17302.9 15282.1 17307.7 C 14897 17477.9 14466.6 17406.5 14060.3 17381.1 C 13900.1 17371.2 13720.6 17369.7 13566 17389.5 C 13296.8 17424 13044.4 17519 12808.5 17674.6 C 12706.5 17741.9 12607.7 17806.2 12512.2 17866.8 C 12250.2 18033.9 11964.5 18121.8 11642.6 18147.4 C 11309.9 18174.1 10981.9 18171.3 10658.2 18139.5 C 10621.6 18136 10620.1 18141.6 10653.6 18156.3 C 10720.9 18186 10788.4 18211.9 10856.2 18234 C 11112.1 18317.3 11399.8 18406.9 11719.5 18502.9 C 11927 18565.1 12127.3 18580.1 12320.5 18547.8 C 12525.9 18513.6 12727 18416.8 12923.8 18333.8 C 13152.8 18237.3 13351.7 18189.3 13585.3 18208.4 C 13698 18217.5 13771.9 18225.1 13807.2 18231.2 C 14016.1 18267 14219.8 18297 14418.3 18321.6 C 14616.6 18346.2 14785.8 18353.6 14925.4 18343.9 C 15270.7 18319.8 15579.2 18236.8 15850.9 18094.6 C 15991.8 18021 16139.6 17941 16294.5 17854.7 C 16540.5 17717.3 16799.5 17645.7 17071.5 17639.8 C 17225.6 17636.5 17399.5 17647.7 17593.3 17673.6 C 17604.2 17675.1 17611.3 17686.1 17607.7 17696.5 C 17518.9 17960 17393.4 18220.5 17231.7 18477.8 C 17132.9 18634.4 17030.3 18761.6 16923.9 18859.4 C 16535.7 19215.6 16022.6 19331.4 15496.7 19305.3 C 15198.4 19290.3 14885.5 19273.5 14595.1 19319.7 C 14221.8 19379.4 13875.2 19546 13633.8 19844.3 C 13557.6 19938.5 13478.4 20051.3 13396.1 20183 C 13266.1 20391.2 13070.3 20545.4 12853.7 20658.1 C 12402.5 20892.5 11901.6 20991 11397.3 21090.8 C 11347 21100.7 11300.8 21121.2 11250.8 21129.6 C 11241.9 21131.1 11240.6 21135.2 11246.5 21141.8 C 11249.3 21144.6 11252.3 21146.1 11255.9 21146.1 C 11339.7 21144.9 11424.5 21149.2 11510 21158.6 C 11804.8 21190.8 12110.5 21217.2 12427.2 21238 C 12994.1 21275.6 13645.4 21167.9 13967.9 20644.4 C 14013.3 20570.8 14054.5 20504 14091.6 20444.1 C 14258.6 20173.4 14712.1 20064.2 15002.3 20129.2 C 15075.5 20145.4 15148.6 20161.7 15221.5 20177.7 C 15458.9 20229.8 15686.1 20218.6 15903.2 20143.7 C 15912.9 20140.4 15915.4 20143.2 15910.8 20152.3 C 15731.8 20503.5 15568.8 20817.3 15422.3 21093.6 C 15073.7 21750.4 14692.3 22420.5 14278.7 23104.3 C 14133.2 23344.8 13993 23567.2 13857.7 23771.8 C 13843.2 23793.7 13846.8 23797.2 13868.4 23782.2 C 14285 23492.5 14725.3 23205.9 15189.2 22922.5 C 15608.4 22666.5 16045.2 22409.8 16471.5 22150.1 C 16882.6 21900 17301.5 21663.9 17728.1 21441.9 C 17735.4 21438.1 17741.3 21439.6 17745.9 21446.5 L 17750.2 21453.4 C 17751.4 21455.1 17751.2 21456.9 17749.4 21458.2 C 17586.7 21585.4 17464.8 21729.9 17383.5 21891.6 C 17254.3 22148.8 17238 22414.7 17335 22689.2 C 17357.1 22751.4 17374.9 22813.1 17388.6 22874 C 17449.8 23143.9 17389.4 23367.6 17207.8 23545.3 C 17093.6 23657.3 16933.6 23710.9 16803.1 23805.3 C 16593.3 23957.4 16443.8 24162.1 16354.2 24419.3 C 16268.1 24666.4 16230.5 24905 16241.2 25134.8 C 16247.8 25274.7 16268.9 25424 16304.4 25583 C 16416.4 26082.9 16570.8 26556.2 16698.7 27052.1 C 16700.5 27059.5 16707.6 27064.1 16715 27062.8 L 16721.6 27061.5 C 16725.1 27060.8 16726.7 27058.7 16726.4 27055.4 C 16684 26602.4 16665.5 26130.4 16670.5 25639.4 C 16676.4 25091.2 16920.6 24530.3 17424.4 24276.4 C 17494.7 24241.1 17559.2 24204.8 17617.9 24167.7 C 18046.7 23897.3 18276 23418.9 18300.9 22914.6 C 18311.3 22707.7 18317.7 22495.9 18320.5 22279.1 C 18325 21934.8 18508.9 21573.4 18734.8 21302.8 C 18985.5 21002.2 19297 20751 19634.2 20560.4 C 19767.5 20484.9 19915.8 20425.3 20079.1 20381.3 C 20089 20378.8 20099.6 20382.9 20105 20391.5 C 20200.2 20540.5 20267.7 20733.5 20237.5 20910.5 C 20199.2 21134.4 20055.4 21333.3 19904.9 21507.4 C 19803.3 21624.5 19695.1 21766.7 19580.6 21934.5 C 19183.8 22514.2 19062.9 23252.6 19181.5 23951.3 C 19205.1 24090.2 19229 24229.1 19252.6 24368.3 C 19262.7 24428.7 19254.6 24518.6 19228.2 24637.9 C 19181 24851.5 19039.3 25081.8 18942.5 25284.1 C 18807 25568.3 18770.1 25843.2 18832.1 26109.6 C 18868.1 26264.5 18929.3 26439.2 19015.7 26633.7 C 19146.7 26928.2 19278.2 27210.3 19410 27479.7 C 19457.5 27576.9 19468.9 27572.9 19444.3 27467.5 C 19349.3 27064.6 19298.8 26643.8 19292.9 26205.3 C 19289.1 25934.4 19342.2 25694.7 19451.6 25486.8 C 19680.7 25052.1 20151.9 24653.7 20121.7 24147.6 C 20116.1 24055.4 20111 23965.6 20106.7 23877.5 C 20090.7 23566.7 20258.1 23335.4 20436.3 23073.1 C 20493.7 22988.3 20540.2 22886.7 20561.5 22785.9 C 20583.3 22682.8 20653.1 22578.4 20771 22472.8 C 20780.4 22464.4 20788.7 22465.4 20795.8 22475.9 C 20911.1 22646 21003 22796.6 20998.5 23012.9 C 20996.2 23122.1 20984.8 23217.3 20964.2 23298.5 C 20921.5 23467.4 20869 23651 20806.5 23849.3 C 20733.1 24083.1 20714.3 24322.8 20750.1 24567.8 C 20773 24723.8 20798.1 24882.4 20825.3 25044.2 C 20826.3 25050 20829.6 25052.3 20835.5 25050.5 C 20838.3 25049.8 20840.5 25048.5 20842.3 25046.2 C 20844.1 25044.4 20845.4 25042.4 20845.6 25039.9 C 20896.1 24706.5 20967 24441.7 21057.6 24245.4 C 21120.9 24109 21219.6 23930.8 21354.5 23710.6 C 21426.3 23592.8 21489 23449.9 21542.6 23281.5 C 21671.3 22874.8 21610.7 22368.2 21451.5 21994.7 C 21377.6 21821.3 21294.8 21631.4 21203.1 21424.4 C 21044.9 21067.2 20977.1 20689.3 21000 20290.7 C 21004.8 20210.2 21009.9 20132.3 21015.5 20056.8 C 21017 20036.8 21023.4 20035 21034.5 20051.8 C 21057.6 20086 21082.3 20118.3 21108.9 20148.8 C 21265.1 20328.3 21420.5 20505.8 21575.4 20681.2 C 21801.3 20936.6 22027.3 21221.8 22166.7 21525.5 C 22301 21818.2 22340.7 22133.1 22285.6 22469.5 C 22228.4 22819.2 22099.2 23128.4 21992.8 23460.5 C 21862.8 23866.3 21890 24247.4 21975.8 24664.6 C 22096.9 25253.4 22186.3 25768.1 22243.9 26208.1 C 22341.2 26949.5 22435.4 27669.6 22526.5 28368.1 C 22527.5 28375.8 22531.1 28377 22536.9 28371.9 C 22539.2 28369.9 22540.7 28367.1 22541 28364.1 C 22572.2 28100.8 22609.8 27825.8 22637.2 27569.1 C 22798.7 26058.6 22930 24554.9 23031.3 23057.8 C 23056.9 22678 23068.9 22298.6 23136.7 21927.7 C 23263.6 21231.9 23499.5 20557 23901.4 19989 C 23913.1 19972.5 23920.7 19974.1 23924 19994.1 C 23960.6 20214 23983.7 20428.8 23993.1 20638.8 C 24012.4 21070.2 23920 21467.3 23707 21826.9 C 23552.8 22086.6 23441.6 22337 23378.6 22641.2 C 23302 23011.4 23395.9 23388.2 23582.3 23714.7 C 23657.7 23847 23731.1 23974.4 23802.2 24096.8 C 23985.5 24412.9 24103.8 24757 24146 25119.1 C 24151.3 25164.5 24159.4 25165 24170.8 25120.6 C 24205.1 24986.3 24231 24849.9 24248 24712.1 C 24280.3 24453.3 24256.4 24191.3 24176.2 23925.7 C 24120.3 23740.3 24042.1 23554.5 24029.4 23366.8 C 24018.5 23208.4 24037.5 23042.8 24086.3 22869.9 C 24128.4 22720.6 24213.3 22582.3 24340.5 22454.8 C 24347.1 22448.2 24356.7 22446.2 24365.4 22449.2 C 24504.7 22497.7 24612.7 22578.7 24688.8 22692.4 C 24827.2 22898.6 24886.9 23147.5 24899.1 23413.3 C 24907.5 23593.3 24917.9 23772.8 24930.6 23952.4 C 24946.3 24175.8 24983.9 24386.3 25063.1 24598.1 C 25141.1 24806 25229.7 24990.1 25329.2 25149.8 C 25513.3 25444.9 25691 25708.7 25707.5 26066.2 C 25730.6 26560.8 25659.3 27059.7 25535.6 27537.3 C 25534.4 27541.7 25534.4 27546.2 25535.6 27550.6 C 25536.1 27552.8 25537.7 27554.4 25540 27555.1 C 25545.5 27556.6 25549.6 27554.9 25552.4 27549.8 C 25776.3 27116.4 25961.7 26723.1 26108.7 26369.9 C 26252.7 26024.3 26244.6 25679.7 26084.1 25336.4 C 25935.3 25018 25703.7 24626.5 25779.4 24259.1 C 25816.7 24078 25852.8 23900.8 25887.5 23727.9 C 25927.2 23531.4 25943.9 23325.7 25938.1 23110.9 C 25929.2 22801.1 25852.8 22521.8 25708.8 22272.7 C 25611.6 22104.6 25507.2 21952 25395.2 21814.7 C 25174.8 21544.3 24993.3 21265.2 24957.7 20916.3 C 24944 20781.8 24944 20643.4 24958 20501.2 C 24970.7 20371.9 24987.2 20245.8 25007.2 20122.1 C 25008.8 20112.7 25013.3 20110.9 25020.7 20117.3 C 25331.7 20385.4 25664.1 20623.6 25989.4 20873.4 C 26405.5 21192.6 26612.2 21640.2 26655.1 22153.6 C 26669.9 22328.3 26679.8 22519.3 26685.1 22726.7 C 26699.1 23288.4 26901.2 23850 27398.6 24155 C 27523.8 24231.7 27657.8 24297.7 27772.1 24391.1 C 28054.9 24622.7 28231.7 25001.5 28293.4 25359.5 C 28335.8 25605.8 28359.6 25865.6 28367.5 26124.1 C 28375.4 26393.7 28386 26666.7 28361.4 26934.6 C 28346.7 27093.8 28359.6 27096 28400.5 26941.4 C 28497.5 26573.8 28588.7 26215.5 28674.2 25866.4 C 28724.5 25661.4 28757.5 25428.1 28773 25165.8 C 28806 24604.7 28602.6 23976 28073.5 23691.1 C 28012.8 23658.3 27955.2 23625.3 27900.6 23591.6 C 27592.1 23401.4 27506.2 22972.8 27609.3 22647.8 C 27707.6 22337.5 27724.9 22049.5 27579.1 21749.9 C 27561.3 21713.6 27534.4 21686.2 27508.3 21656.5 C 27494.3 21640.5 27496.1 21638.2 27513.9 21649.9 C 27618 21718.4 27721.3 21781.9 27832.5 21842.3 C 28292.4 22092.4 28768.9 22343.3 29231.3 22606.1 C 29757.2 22904.7 30273.9 23213.7 30781.2 23533.4 C 30911.5 23615.4 31038.9 23702 31163.3 23792.9 C 31166.9 23795.4 31172 23794.2 31174 23790.1 C 31176 23785.8 31175.5 23781.5 31172.5 23777.2 C 31101.1 23676.1 31032.3 23571.2 30966.1 23462.6 C 30410.2 22551.3 29866.6 21639.2 29335.2 20726.4 C 29231.1 20547.7 29113.5 20371.2 28986.3 20206.1 C 28974.9 20191.4 28976.9 20189.4 28992.4 20199.8 C 29123.7 20289.4 29268.9 20334.6 29427.9 20335.6 C 29644.9 20337.2 29833.3 20210.2 30049.7 20183.8 C 30257.1 20158.7 30455.4 20201.8 30645.1 20313.8 C 30755 20378.8 30816.5 20508.3 30880.2 20616.5 C 31041 20889.4 31298.7 21068.2 31617.3 21162.9 C 31796.6 21216.2 31962.1 21248.4 32113.7 21259.6 C 32243.5 21269.3 32411.8 21261.4 32618.8 21236 C 33032.6 21185.2 33425.7 21124.5 33797.7 21053.9 C 33802.8 21052.9 33806.6 21048.4 33806.6 21043.3 L 33806.8 21035.7 C 33807.1 21032.6 33805.5 21031.1 33802.2 21031.4 C 33650.9 21039.5 33492 21033.4 33325.4 21013.1 C 33091 20984.4 32860.7 20943.5 32634.3 20890.7 C 32182.8 20785.3 31777.3 20585.7 31500.8 20216 C 31423.6 20112.9 31362.4 19996.7 31285 19896.9 C 30978 19501 30504.9 19304.5 30002.2 19281.1 C 29884.1 19275.5 29766.8 19275.3 29650.3 19280.1 C 29459.6 19288 29339.2 19289.8 29289.2 19285.4 C 28986.6 19259.8 28730.1 19195.1 28519.6 19091.2 C 28017.1 18843.1 27658.6 18459.2 27444.3 17939.2 C 27439.2 17926.5 27444.3 17912 27456.5 17905.7 C 27660.6 17796.3 27923.9 17715.3 28151.2 17782.3 C 28290.6 17823.2 28423.1 17874.5 28548.3 17935.9 C 28787 18053 29035.3 18176.6 29293.5 18307.1 C 29441.1 18381.5 29624.4 18438.4 29843.5 18477.8 C 29962.1 18498.8 30095.9 18496.3 30245.4 18469.6 C 30449.8 18433.3 30650.9 18368.6 30849 18274.9 C 31127.3 18143.4 31391.3 18013.1 31701.9 18152.7 C 31806 18199.5 31914.9 18253.8 32028.4 18316 C 32316.9 18473.9 32676.1 18604 32983.4 18542.5 C 33155.3 18508 33332.8 18462.8 33516.3 18406.7 C 33772.3 18328.5 34016.8 18252 34249.9 18177.6 C 34330.1 18152 34328.3 18142.8 34244.6 18150.2 C 33889.6 18181.7 33534.4 18176.9 33175.8 18129.9 C 32816.8 18082.7 32547.2 17980.8 32256.2 17779.2 C 32093.2 17666 31934.2 17562.1 31779.3 17467.7 C 31671.9 17402.4 31537.9 17335.2 31412.7 17308.7 C 30984.8 17219.1 30658.8 17517.7 30249.5 17548.4 C 29993.3 17567.7 29772.7 17487.8 29587.8 17308.7 C 29581.7 17302.9 29582.5 17297.8 29589.8 17293.5 C 29815.1 17169.1 30034.4 17046.5 30248.2 16925.6 C 30366.8 16858.3 30507.5 16798.9 30670 16747.3 C 30798 16707 30945 16683.1 31111 16675.7 C 31355 16665.1 31582.8 16675.5 31794.6 16707 C 31816.9 16710.3 31819.5 16704.7 31802.4 16690 C 31795.1 16683.6 31786.2 16678.3 31776.3 16674.2 C 31512.5 16563.5 31246.4 16475.4 30977.5 16410.2 C 30578.6 16313.4 30155.3 16317 29707.9 16420.8 C 29278 16520.3 28859.6 16691 28434.8 16828.9 C 28058.8 16950.7 27804.1 16836.7 27602.7 16509.7 C 27593.6 16494.7 27596.4 16475.2 27609.6 16463.5 C 27869.8 16232.2 28137.5 15987.9 28446.5 15818.3 C 28760.3 15645.9 29098 15628.1 29441.1 15692.6 C 29607.1 15723.8 29795.3 15766.2 30005.5 15819.6 C 30222.3 15874.6 30389.4 15905.1 30506.5 15911.2 C 30664.9 15919.6 30835.3 15906.1 31017.9 15871.3 C 31351.7 15807.9 31686.9 15725.1 32027.1 15663.9 C 32435.4 15590.5 32864.6 15527.8 33314.2 15476 C 33952.3 15402.4 34513.5 15341.7 34997.4 15294.2 C 35406.7 15253.8 35821.4 15203.6 36222.8 15171.3 C 36225.1 15171.1 36226.9 15170.3 36228.1 15168.5 C 36228.9 15167.8 36228.9 15167 36228.4 15166 C 36227.6 15163.7 36225.8 15162.2 36223.3 15161.9 C 36030.3 15138.8 35836.3 15128.1 35643.6 15107.3 C 35057.1 15043.8 34471.6 14980.4 33887.3 14916.9 C 33547.8 14880.1 33142.6 14780.8 32831 14738.4 C 32541.3 14699 32228.8 14678 31892.8 14675.7 C 31433.8 14672.4 30972.1 14713 30529.6 14838.4 C 30368.6 14884.1 30192.6 14932.4 30001.9 14983.4 C 30000.4 14983.7 29998.9 14983.9 29997.1 14984.2 C 29976.6 14985.7 29966.9 14982.7 29967.9 14975.3 C 29968.7 14971 29970.7 14967.9 29974.5 14965.6 C 30294.2 14776.7 30603.5 14550.2 30832.7 14269.4" style="fill-opacity: 1; fill-rule: nonzero; stroke: none; fill: rgb(16, 14, 17);" id="path16"/>
      <path d="M 27335.6 15602.5 L 27368.921 14284.268 C 26317.811 14284.268 17618.334 14124.568 17600.334 14284.268 C 17571.134 14943.968 17673 15801.8 17887.3 16425.9 C 18396.6 17863 19556.8 19013.5 21020.6 19456.1 C 21753.1 19677.5 22489.7 19734.6 23230.4 19627.5 C 23997.4 19516.5 24703 19233.9 25347.2 18779.7 C 25489.2 18679.6 25621.7 18574 25744.9 18462.8 C 26480.2 17798.8 26978.9 16991.6 27240.9 16041.7 C 27280.5 15898.8 27307.2 15749.2 27335.6 15602.5" style="fill-opacity: 1; fill-rule: nonzero; stroke: none; fill: rgb(16, 14, 17);" id="path18"/>
      <path d="M 17341.6 15847.2 C 17242.1 15389.4 17187.801 14561.7 17250.001 14260 C 16983.901 14496.2 16035.5 14372 15767.1 14374.8 C 15643.5 14376.1 14661.07 14685.729 14635.178 14700.057 C 14403.964 14828.005 14250.001 14887.962 14029.188 15000.198 C 13859.226 15086.588 13687.825 15059.7 13500.001 15010 C 13213.048 14934.069 12853.647 14896.387 12597.647 14754.187 C 12532.147 14717.887 12428.9 14668.1 12353.8 14681.5 C 12056.4 14734.1 11748.7 14784.6 11430.3 14833.1 C 11172.3 14872.5 10768.6 14921 10219.4 14978.8 C 9738.99 15029.6 9272.55 15096.7 8787.08 15165.2 C 8783.01 15165.7 8780.47 15169.8 8781.49 15173.6 C 8782.25 15176.9 8784.28 15178.4 8787.33 15178.7 C 9081.87 15194.7 9441.15 15237.1 9687.19 15261.2 C 10386 15329.5 11084.5 15400.1 11782.5 15472.5 C 11841.1 15478.5 11898.3 15484.6 11953.4 15490.7 C 12660 15568.4 13324.5 15643.6 13947.3 15716 C 14403.1 15769 14853.3 15747.9 15300.9 15753.5 C 15814.6 15759.9 16292.5 15834.5 16734.5 15977 C 16961 16049.8 17144.508 16978.575 17374.308 17078.875 C 17382.708 17082.375 17672.314 16974.431 17670.014 16965.531 L 17341.6 15847.2" style="fill-opacity: 1; fill-rule: nonzero; stroke: none; fill: rgb(16, 14, 17);" id="path20"/>
      <path d="M 21907.576 14572.166 C 21915.899 14608.675 21950.768 14631.108 21985.413 14622.389 C 22020.084 14613.58 22041.387 14576.889 22033.021 14540.379" style="fill: rgb(16, 14, 17); fill-opacity: 1; fill-rule: nonzero; stroke: none;" id="path-4"/>
      <path d="M 22796.212 14542.468 C 22789.054 14579.25 22811.478 14615.214 22846.408 14622.843 C 22880.906 14630.654 22915.404 14606.858 22922.649 14570.077" style="fill: rgb(16, 14, 17); fill-opacity: 1; fill-rule: nonzero; stroke: none;" id="path-7"/>
      <path d="M 20276.249 15111.452 C 20305.332 15132.976 20345.583 15125.62 20366.135 15094.832 C 20386.644 15064.135 20379.572 15021.723 20350.378 15000.198" style="fill: rgb(16, 14, 17); fill-opacity: 1; fill-rule: nonzero; stroke: none;" id="path-8"/>
      <path d="M 19227.23 16115.371 C 19260.676 16127.722 19297.659 16108.741 19309.259 16073.231 C 19320.885 16037.72 19302.946 15999.031 19269.249 15986.861" style="fill: rgb(16, 14, 17); fill-opacity: 1; fill-rule: nonzero; stroke: none;" id="path-9"/>
      <path d="M 25653.803 15986.861 C 25620.167 15999.031 25602.228 16037.72 25613.871 16073.231 C 25625.428 16108.741 25662.255 16127.722 25695.891 16115.371" style="fill: rgb(16, 14, 17); fill-opacity: 1; fill-rule: nonzero; stroke: none;" id="path-10"/>
      <path d="M 21049.161 14725.651 C 21069.825 14756.257 21110.257 14763.341 21139.167 14741.544 C 21168.198 14719.747 21174.925 14677.245 21154.208 14646.729" style="fill: rgb(16, 14, 17); fill-opacity: 1; fill-rule: nonzero; stroke: none;" id="path-11"/>
      <path d="M 24660.421 15077.213 C 24631.787 15099.646 24625.836 15142.149 24647.053 15172.301 C 24668.355 15202.454 24708.805 15208.72 24737.352 15186.378" style="fill: rgb(16, 14, 17); fill-opacity: 1; fill-rule: nonzero; stroke: none;" id="path-12"/>
      <path d="M 23823.317 14646.729 C 23802.618 14677.245 23809.345 14719.747 23838.323 14741.544 C 23867.302 14763.341 23907.665 14756.257 23928.364 14725.651" style="fill: rgb(16, 14, 17); fill-opacity: 1; fill-rule: nonzero; stroke: none;" id="path-13"/>
      <path d="M 23533.444 18685.835 L 23309.376 18195.864 L 23165.173 18270.427 L 23396.226 18756.674 L 23533.444 18685.835" style="fill: rgb(27, 23, 29); fill-opacity: 1; fill-rule: nonzero; stroke: none;" id="path-14"/>
      <path d="M 23084.188 17706.62 L 22857.792 17218.01 L 22706.43 17296.206 L 22935.241 17783.634 L 23084.188 17706.62" style="fill: rgb(27, 23, 29); fill-opacity: 1; fill-rule: nonzero; stroke: none;" id="path-15"/>
      <path d="M 22631.31 16729.311 L 22403.448 16241.428 L 22250.447 16320.532 L 22477.706 16808.777 L 22631.31 16729.311" style="fill: rgb(27, 23, 29); fill-opacity: 1; fill-rule: nonzero; stroke: none;" id="path-16"/>
      <path d="M 22174.723 15753.909 L 21945.939 15266.482 L 21797.656 15343.224 L 22024.052 15831.832 L 22174.723 15753.909" style="fill: rgb(27, 23, 29); fill-opacity: 1; fill-rule: nonzero; stroke: none;" id="path-17"/>
      <path d="M 21727.184 18806.807 L 21923.256 18303.757 L 21774.042 18240.728 L 21585.283 18746.866 L 21727.184 18806.807" style="fill: rgb(27, 23, 29); fill-opacity: 1; fill-rule: nonzero; stroke: none;" id="path-18"/>
      <path d="M 22118.06 17800.254 L 22311.596 17296.206 L 22155.146 17229.999 L 21963.938 17735.137 L 22118.06 17800.254" style="fill: rgb(27, 23, 29); fill-opacity: 1; fill-rule: nonzero; stroke: none;" id="path-19"/>
      <path d="M 22505.305 16792.158 L 22697.202 16287.383 L 22539.113 16220.631 L 22346.267 16724.951 L 22505.305 16792.158" style="fill: rgb(27, 23, 29); fill-opacity: 1; fill-rule: nonzero; stroke: none;" id="path-20"/>
      <path d="M 22888.323 15782.336 L 23079.531 15277.288 L 22926.358 15212.444 L 22732.735 15716.492 L 22888.323 15782.336" style="fill: rgb(27, 23, 29); fill-opacity: 1; fill-rule: nonzero; stroke: none;" id="path-21"/>
      <path d="M 23645.046 13758.605 L 23515.16 13703.749 L 23645.046 13758.605" style="fill: rgb(27, 23, 29); fill-opacity: 1; fill-rule: nonzero; stroke: none;" id="path-22"/>
      <path d="M 20256.085 17653.127 L 20735.648 17451.689 L 20675.896 17297.205 L 20199.146 17506.089 L 20256.085 17653.127" style="fill: rgb(27, 23, 29); fill-opacity: 1; fill-rule: nonzero; stroke: none;" id="path-23"/>
      <path d="M 21215.089 17249.797 L 21693.738 17045.817 L 21630.459 16882.25 L 21152.777 17088.684 L 21215.089 17249.797" style="fill: rgb(27, 23, 29); fill-opacity: 1; fill-rule: nonzero; stroke: none;" id="path-24"/>
      <path d="M 22172.395 16841.836 L 22650.802 16637.311 L 22586.031 16470.021 L 22108.141 16675.909 L 22172.395 16841.836" style="fill: rgb(27, 23, 29); fill-opacity: 1; fill-rule: nonzero; stroke: none;" id="path-25"/>
      <path d="M 23128.432 16430.877 L 23606.063 16224.445 L 23543.362 16062.151 L 23064.696 16266.131 L 23128.432 16430.877" style="fill: rgb(27, 23, 29); fill-opacity: 1; fill-rule: nonzero; stroke: none;" id="path-26"/>
      <path d="M 24083.521 16017.195 L 24560.203 15808.219 L 24501.901 15657.641 L 24022.286 15859.078 L 24083.521 16017.195" style="fill: rgb(27, 23, 29); fill-opacity: 1; fill-rule: nonzero; stroke: none;" id="path-27"/>
      <path d="M 20198.895 15719.307 L 20675.646 15928.101 L 20735.398 15773.617 L 20255.792 15572.27 L 20198.895 15719.307" style="fill: rgb(27, 23, 29); fill-opacity: 1; fill-rule: nonzero; stroke: none;" id="path-28"/>
      <path d="M 21152.613 16136.441 L 21630.338 16342.783 L 21693.574 16179.217 L 21214.883 15975.419 L 21152.613 16136.441" style="fill: rgb(27, 23, 29); fill-opacity: 1; fill-rule: nonzero; stroke: none;" id="path-29"/>
      <path d="M 22108.055 16549.034 L 22586.031 16754.741 L 22650.715 16587.451 L 22172.222 16383.016 L 22108.055 16549.034" style="fill: rgb(27, 23, 29); fill-opacity: 1; fill-rule: nonzero; stroke: none;" id="path-30"/>
      <path d="M 23064.696 16958.539 L 23543.362 17162.338 L 23606.149 17000.134 L 23128.432 16793.792 L 23064.696 16958.539" style="fill: rgb(27, 23, 29); fill-opacity: 1; fill-rule: nonzero; stroke: none;" id="path-31"/>
      <path d="M 24022.459 17365.41 L 24502.073 17566.666 L 24560.289 17416.088 L 24083.607 17207.293 L 24022.459 17365.41" style="fill: rgb(27, 23, 29); fill-opacity: 1; fill-rule: nonzero; stroke: none;" id="path-32"/>
      <path d="M 20531.012 14765.338 L 20902.379 15143.057 L 21013.187 15020.814 L 20637.37 14647.91 L 20531.012 14765.338" style="fill: rgb(27, 23, 29); fill-opacity: 1; fill-rule: nonzero; stroke: none;" id="path-33"/>
      <path d="M 21274.341 15520.23 L 21647.225 15896.405 L 21762.864 15768.622 L 21388.513 15394.173 L 21274.341 15520.23" style="fill: rgb(27, 23, 29); fill-opacity: 1; fill-rule: nonzero; stroke: none;" id="path-34"/>
      <path d="M 22020.084 16272.488 L 22393.012 16648.572 L 22511.6 16517.611 L 22137.293 16143.162 L 22020.084 16272.488" style="fill: rgb(27, 23, 29); fill-opacity: 1; fill-rule: nonzero; stroke: none;" id="path-35"/>
      <path d="M 22767.148 17023.202 L 23141.542 17397.742 L 23257.543 17269.595 L 22884.701 16893.512 L 22767.148 17023.202" style="fill: rgb(27, 23, 29); fill-opacity: 1; fill-rule: nonzero; stroke: none;" id="path-36"/>
      <path d="M 23515.849 17772.191 L 23890.847 18145.913 L 24002.708 18022.489 L 23630.47 17645.679 L 23515.849 17772.191" style="fill: rgb(27, 23, 29); fill-opacity: 1; fill-rule: nonzero; stroke: none;" id="path-37"/>
      <path d="M 24266.708 18518.727 L 24374.084 18400.208 L 24266.708 18518.727" style="fill: rgb(27, 23, 29); fill-opacity: 1; fill-rule: nonzero; stroke: none;" id="path-38"/>
      <path d="M 24701.474 14275.096 L 24803.417 14387.621" style="fill: rgb(27, 23, 29); fill-opacity: 1; fill-rule: nonzero; stroke: none;" id="path-39"/>
      <path d="M 24325.614 14647.91 L 23949.84 15020.814 L 24060.58 15143.057 L 24431.955 14765.338 L 24325.614 14647.91" style="fill: rgb(27, 23, 29); fill-opacity: 1; fill-rule: nonzero; stroke: none;" id="path-40"/>
      <path d="M 23574.497 15394.173 L 23200.103 15768.622 L 23315.759 15896.405 L 23688.687 15520.23 L 23574.497 15394.173" style="fill: rgb(27, 23, 29); fill-opacity: 1; fill-rule: nonzero; stroke: none;" id="path-41"/>
      <path d="M 22825.795 16143.162 L 22451.401 16517.611 L 22569.989 16648.572 L 22942.917 16272.488 L 22825.795 16143.162" style="fill: rgb(27, 23, 29); fill-opacity: 1; fill-rule: nonzero; stroke: none;" id="path-42"/>
      <path d="M 22078.387 16893.512 L 21705.467 17269.595 L 21821.485 17397.742 L 22195.854 17023.202 L 22078.387 16893.512" style="fill: rgb(27, 23, 29); fill-opacity: 1; fill-rule: nonzero; stroke: none;" id="path-43"/>
      <path d="M 21332.582 17645.679 L 20960.327 18022.489 L 21072.145 18145.913 L 21447.134 17772.191 L 21332.582 17645.679" style="fill: rgb(27, 23, 29); fill-opacity: 1; fill-rule: nonzero; stroke: none;" id="path-44"/>
      <path d="M 20588.926 18400.208 L 20696.276 18518.727 L 20588.926 18400.208" style="fill: rgb(27, 23, 29); fill-opacity: 1; fill-rule: nonzero; stroke: none;" id="path-45"/>
      <path d="M 26833.91 16545.503 L 26833.926 16678.145" style="fill: rgb(27, 23, 29); fill-opacity: 1; fill-rule: nonzero; stroke: none;" id="path-46"/>
      <path d="M 26317.811 16540.406 L 25801.456 16535.411 L 25801.456 16689.441 L 26317.811 16684.445 L 26317.811 16540.406" style="fill: rgb(27, 23, 29); fill-opacity: 1; fill-rule: nonzero; stroke: none;" id="path-47"/>
      <path d="M 25285.101 16532.051 L 24768.746 16528.782 L 24768.746 16696.071 L 25285.101 16692.801 L 25285.101 16532.051" style="fill: rgb(27, 23, 29); fill-opacity: 1; fill-rule: nonzero; stroke: none;" id="path-48"/>
      <path d="M 24252.477 16525.602 L 23736.122 16524.513 L 23736.122 16700.339 L 24252.477 16699.249 L 24252.477 16525.602" style="fill: rgb(27, 23, 29); fill-opacity: 1; fill-rule: nonzero; stroke: none;" id="path-49"/>
      <path d="M 23219.767 16523.423 L 22703.412 16522.333 L 22703.412 16702.519 L 23219.767 16701.429 L 23219.767 16523.423" style="fill: rgb(27, 23, 29); fill-opacity: 1; fill-rule: nonzero; stroke: none;" id="path-50"/>
      <path d="M 22187.057 16522.333 L 21670.753 16523.514 L 21670.753 16701.339 L 22187.057 16702.519 L 22187.057 16522.333" style="fill: rgb(27, 23, 29); fill-opacity: 1; fill-rule: nonzero; stroke: none;" id="path-51"/>
      <path d="M 21154.415 16524.604 L 20638.078 16525.693 L 20638.078 16699.158 L 21154.415 16700.248 L 21154.415 16524.604" style="fill: rgb(27, 23, 29); fill-opacity: 1; fill-rule: nonzero; stroke: none;" id="path-52"/>
      <path d="M 20121.748 16528.962 L 19605.41 16532.324 L 19605.41 16692.529 L 20121.748 16695.889 L 20121.748 16528.962" style="fill: rgb(27, 23, 29); fill-opacity: 1; fill-rule: nonzero; stroke: none;" id="path-53"/>
      <path d="M 19089.064 16535.593 L 18572.726 16540.951 L 18572.726 16683.901 L 19089.064 16689.259 L 19089.064 16535.593" style="fill: rgb(27, 23, 29); fill-opacity: 1; fill-rule: nonzero; stroke: none;" id="path-54"/>
      <path d="M 22564.556 18090.332 L 22565.677 17546.595 L 22397.324 17546.595 L 22398.446 18090.332 L 22564.556 18090.332" style="fill: rgb(27, 23, 29); fill-opacity: 1; fill-rule: nonzero; stroke: none;" id="path-55"/>
      <path d="M 22566.712 17002.859 L 22567.315 16459.213 L 22395.686 16459.213 L 22396.29 17002.859 L 22566.712 17002.859" style="fill: rgb(27, 23, 29); fill-opacity: 1; fill-rule: nonzero; stroke: none;" id="path-56"/>
      <path d="M 22566.194 15915.477 L 22565.073 15371.741 L 22397.928 15371.741 L 22396.807 15915.477 L 22566.194 15915.477" style="fill: rgb(27, 23, 29); fill-opacity: 1; fill-rule: nonzero; stroke: none;" id="path-57"/>
      <path d="M 22564.038 14828.005 L 22561.019 14284.268 L 22401.982 14284.268 L 22398.963 14828.005 L 22564.038 14828.005" style="fill: rgb(27, 23, 29); fill-opacity: 1; fill-rule: nonzero; stroke: none;" id="path-58"/>
      <path d="M 22481.501 18953.752 C 20044.342 18916.788 18184.257 16788.707 18184.257 16788.707 C 18835.233 15915.386 19631.25 15110.908 20608.754 14661.441 C 21657.273 14179.372 23024.161 14144.043 24099.39 14554.274 C 25150.643 14955.243 26008.102 15779.793 26699.364 16683.538 C 26704.797 16690.713 26780.952 16786.164 26778.71 16788.707 C 26778.624 16788.798 24918.555 18916.788 22481.501 18953.752" style="fill: rgb(255, 255, 255); fill-opacity: 1; fill-rule: nonzero; stroke: none;" id="path-59"/>
      <path d="M 20928.106 14661.441 C 19950.602 15110.908 19154.577 15915.386 18503.617 16788.707 C 18503.617 16788.707 20283.097 18822.881 22641.142 18947.032 C 22588.101 18949.847 22535.059 18952.935 22481.501 18953.752 C 20044.342 18916.788 18184.257 16788.707 18184.257 16788.707 C 18835.233 15915.386 19631.25 15110.908 20608.754 14661.441 C 21218.168 14381.263 21934.977 14253.117 22639.676 14274.46 C 22040.525 14294.985 21445.53 14423.494 20928.106 14661.441" style="fill: rgb(16, 14, 17); fill-opacity: 1; fill-rule: nonzero; stroke: none;" id="path-60"/>
      <path d="M 24030.48 14661.441 C 25007.992 15110.908 25803.957 15915.386 26454.942 16788.707 C 26454.942 16788.707 24675.428 18822.881 22317.374 18947.032 C 22370.502 18949.847 22423.457 18952.935 22477.102 18953.752 C 24914.243 18916.788 26774.311 16788.707 26774.311 16788.707 C 26123.326 15915.386 25327.275 15110.908 24349.763 14661.441 C 23740.434 14381.263 23023.557 14253.117 22318.841 14274.46 C 22917.992 14294.985 23513.003 14423.494 24030.48 14661.441" style="fill: rgb(16, 14, 17); fill-opacity: 1; fill-rule: nonzero; stroke: none;" id="path-61"/>
      <path d="M 24005.9 16612.971 C 24005.9 15726.391 23323.348 15007.646 22481.501 15007.646 C 21639.532 15007.646 20957.05 15726.391 20957.05 16612.971 C 20957.05 17499.55 21639.532 18218.206 22481.501 18218.206 C 23323.348 18218.206 24005.9 17499.55 24005.9 16612.971" style="fill: rgb(16, 14, 17); fill-opacity: 1; fill-rule: nonzero; stroke: none;" id="path-62"/>
      <path d="M 22481.501 18861.661 C 21303.966 18861.661 20346.005 17852.929 20346.005 16612.971 C 20346.005 15373.012 21303.966 14364.28 22481.501 14364.28 C 23659.018 14364.28 24616.953 15373.012 24616.953 16612.971 C 24616.953 17852.929 23659.018 18861.661 22481.501 18861.661 Z M 22481.501 14273.642 C 21256.531 14273.642 20259.94 15323.061 20259.94 16612.971 C 20259.94 17902.88 21256.531 18952.299 22481.501 18952.299 C 23706.453 18952.299 24703.026 17902.88 24703.026 16612.971 C 24703.026 15323.061 23706.453 14273.642 22481.501 14273.642" style="fill: rgb(16, 14, 17); fill-opacity: 1; fill-rule: nonzero; stroke: none;" id="path-63"/>
      <path d="M 22503.752 16489.275 C 22168.945 16489.275 21876.864 16680.903 21720.379 16965.532 C 21643.275 16825.306 21598.945 16662.649 21598.945 16488.912 C 21598.945 15962.703 22004.042 15536.124 22503.752 15536.124 C 23003.462 15536.124 23408.646 15962.703 23408.646 16488.912 C 23408.646 16662.649 23364.229 16825.306 23287.125 16965.532 C 23130.675 16680.903 22838.559 16489.275 22503.752 16489.275" style="fill: rgb(255, 255, 255); fill-opacity: 1; fill-rule: nonzero; stroke: none;" id="path-64"/>
      <path d="M 22808.718 17180.139 C 22808.718 17002.859 22672.191 16859.092 22503.752 16859.092 C 22335.314 16859.092 22198.786 17002.859 22198.786 17180.139 C 22198.786 17357.509 22335.314 17501.276 22503.752 17501.276 C 22672.191 17501.276 22808.718 17357.509 22808.718 17180.139" style="fill: rgb(255, 255, 255); fill-opacity: 1; fill-rule: nonzero; stroke: none;" id="path-65"/>
      <path d="M 23303.684 16607.976 C 23294.628 16615.695 23293.162 16629.682 23300.493 16639.217 C 23307.824 16648.754 23321.106 16650.298 23330.162 16642.578 C 23339.218 16634.949 23340.684 16620.963 23333.353 16611.427 C 23326.022 16601.8 23312.826 16600.347 23303.684 16607.976" style="fill: rgb(255, 255, 255); fill-opacity: 1; fill-rule: nonzero; stroke: none;" id="path-66"/>
      <path d="M 22627.601 17267.325 L 22632.949 17272.957 L 22638.21 17267.325 L 22632.949 17261.786 L 22627.601 17267.325" style="fill: rgb(27, 23, 29); fill-opacity: 1; fill-rule: nonzero; stroke: none;" id="path-67"/>
      <path d="M 22501.855 17084.415 L 22507.116 17089.954 L 22512.463 17084.415 L 22507.116 17078.875 L 22501.855 17084.415" style="fill: rgb(27, 23, 29); fill-opacity: 1; fill-rule: nonzero; stroke: none;" id="path-68"/>
      <path d="M 22015.858 15840.097 L 22010.597 15845.637 L 22015.858 15851.177 L 22021.119 15845.637 L 22015.858 15840.097" style="fill: rgb(27, 23, 29); fill-opacity: 1; fill-rule: nonzero; stroke: none;" id="path-69"/>
      <path d="M 22287.878 15977.416 C 22287.878 15983.41 22292.449 15988.315 22298.228 15988.315 C 22303.92 15988.315 22308.491 15983.41 22308.491 15977.416 C 22308.491 15971.422 22303.92 15966.518 22298.228 15966.518 C 22292.449 15966.518 22287.878 15971.422 22287.878 15977.416" style="fill: rgb(27, 23, 29); fill-opacity: 1; fill-rule: nonzero; stroke: none;" id="path-70"/>
      <path d="M 22905.314 15977.416 C 22905.314 15983.41 22909.971 15988.315 22915.663 15988.315 C 22921.355 15988.315 22926.013 15983.41 22926.013 15977.416 C 22926.013 15971.422 22921.355 15966.518 22915.663 15966.518 C 22909.971 15966.518 22905.314 15971.422 22905.314 15977.416" style="fill: rgb(27, 23, 29); fill-opacity: 1; fill-rule: nonzero; stroke: none;" id="path-71"/>
      <path d="M 21751.523 16497.902 C 21751.523 16505.531 21757.396 16511.707 21764.71 16511.707 C 21771.989 16511.707 21777.862 16505.531 21777.862 16497.902 C 21777.862 16490.182 21771.989 16484.007 21764.71 16484.007 C 21757.396 16484.007 21751.523 16490.182 21751.523 16497.902" style="fill: rgb(27, 23, 29); fill-opacity: 1; fill-rule: nonzero; stroke: none;" id="path-72"/>
      <path d="M 22345.491 16986.693 L 22348.078 16989.509 L 22350.752 16986.693 L 22348.078 16983.968 L 22345.491 16986.693" style="fill: rgb(27, 23, 29); fill-opacity: 1; fill-rule: nonzero; stroke: none;" id="path-73"/>
      <path d="M 22253.294 17264.601 L 22250.706 17261.786 L 22248.033 17264.601 L 22250.706 17267.325 L 22253.294 17264.601" style="fill: rgb(27, 23, 29); fill-opacity: 1; fill-rule: nonzero; stroke: none;" id="path-74"/>
      <path d="M 23144.646 16611.427 L 23142.059 16608.612 L 23139.385 16611.427 L 23142.059 16614.151 L 23144.646 16611.427" style="fill: rgb(255, 255, 255); fill-opacity: 1; fill-rule: nonzero; stroke: none;" id="path-75"/>
      <path d="M 22703.929 16206.554 L 22706.517 16209.278 L 22709.104 16206.554 L 22706.517 16203.829 L 22703.929 16206.554" style="fill: rgb(27, 23, 29); fill-opacity: 1; fill-rule: nonzero; stroke: none;" id="path-76"/>
      <path d="M 22714.365 16495.087 L 22717.039 16497.902 L 22719.626 16495.087 L 22717.039 16492.363 L 22714.365 16495.087" style="fill: rgb(27, 23, 29); fill-opacity: 1; fill-rule: nonzero; stroke: none;" id="path-77"/>
      <path d="M 23116.444 15872.611 L 23116.789 15868.796 L 23113.08 15868.342 L 23112.735 15872.247 L 23116.444 15872.611" style="fill: rgb(27, 23, 29); fill-opacity: 1; fill-rule: nonzero; stroke: none;" id="path-78"/>
      <path d="M 21815.129 15980.14 L 21817.734 15982.865 L 21820.347 15980.14 L 21817.734 15977.416 L 21815.129 15980.14" style="fill: rgb(27, 23, 29); fill-opacity: 1; fill-rule: nonzero; stroke: none;" id="path-79"/>
      <path d="M 22736.444 15923.923 L 22733.857 15926.648 L 22736.444 15929.372 L 22739.031 15926.648 L 22736.444 15923.923" style="fill: rgb(27, 23, 29); fill-opacity: 1; fill-rule: nonzero; stroke: none;" id="path-80"/>
      <path d="M 22424.406 15848.452 L 22421.732 15845.637 L 22419.145 15848.452 L 22421.732 15851.177 L 22424.406 15848.452" style="fill: rgb(27, 23, 29); fill-opacity: 1; fill-rule: nonzero; stroke: none;" id="path-81"/>
      <path d="M 22478.396 15630.758 L 22475.808 15633.482 L 22478.396 15636.298 L 22481.069 15633.482 L 22478.396 15630.758" style="fill: rgb(27, 23, 29); fill-opacity: 1; fill-rule: nonzero; stroke: none;" id="path-82"/>
      <path d="M 22621.564 15560.554 L 22620.271 15557.739 L 22618.977 15560.554 L 22620.271 15563.279 L 22621.564 15560.554" style="fill: rgb(255, 255, 255); fill-opacity: 1; fill-rule: nonzero; stroke: none;" id="path-83"/>
      <path d="M 23194.755 16055.612 L 23195.1 16051.707 L 23191.392 16051.252 L 23191.047 16055.158 L 23194.755 16055.612" style="fill: rgb(27, 23, 29); fill-opacity: 1; fill-rule: nonzero; stroke: none;" id="path-84"/>
      <path d="M 22414.401 17344.34 L 22416.989 17347.065 L 22419.662 17344.34 L 22416.989 17341.525 L 22414.401 17344.34" style="fill: rgb(27, 23, 29); fill-opacity: 1; fill-rule: nonzero; stroke: none;" id="path-85"/>
      <path d="M 22509.789 17461.77 L 22507.116 17464.494 L 22509.789 17467.309 L 22512.377 17464.494 L 22509.789 17461.77" style="fill: rgb(27, 23, 29); fill-opacity: 1; fill-rule: nonzero; stroke: none;" id="path-86"/>
      <path d="M 21820.347 16203.829 L 21822.952 16206.554 L 21825.556 16203.829 L 21822.952 16201.013 L 21820.347 16203.829" style="fill: rgb(27, 23, 29); fill-opacity: 1; fill-rule: nonzero; stroke: none;" id="path-87"/>
      <path d="M 22619.926 16368.303 L 22617.338 16371.027 L 22619.926 16373.753 L 22622.513 16371.027 L 22619.926 16368.303" style="fill: rgb(27, 23, 29); fill-opacity: 1; fill-rule: nonzero; stroke: none;" id="path-88"/>
      <path d="M 22711.778 17198.939 L 22709.104 17196.213 L 22706.517 17198.939 L 22709.104 17201.663 L 22711.778 17198.939" style="fill: rgb(27, 23, 29); fill-opacity: 1; fill-rule: nonzero; stroke: none;" id="path-89"/>
      <path d="M 22414.401 17105.303 L 22416.989 17108.028 L 22419.662 17105.303 L 22416.989 17102.488 L 22414.401 17105.303" style="fill: rgb(27, 23, 29); fill-opacity: 1; fill-rule: nonzero; stroke: none;" id="path-90"/>
      <path d="M 22091.668 16088.306 L 22096.929 16093.847 L 22102.19 16088.306 L 22096.929 16082.857 L 22091.668 16088.306" style="fill: rgb(27, 23, 29); fill-opacity: 1; fill-rule: nonzero; stroke: none;" id="path-91"/>
      <path d="M 22139.794 16451.675 L 22134.533 16457.216 L 22139.794 16462.755 L 22145.055 16457.216 L 22139.794 16451.675" style="fill: rgb(27, 23, 29); fill-opacity: 1; fill-rule: nonzero; stroke: none;" id="path-92"/>
      <path d="M 22976.38 16422.795 L 22981.641 16428.335 L 22986.902 16422.795 L 22981.641 16417.255 L 22976.38 16422.795" style="fill: rgb(27, 23, 29); fill-opacity: 1; fill-rule: nonzero; stroke: none;" id="path-93"/>
      <path d="M 22489.435 16389.101 L 22494.696 16394.55 L 22499.957 16389.101 L 22494.696 16383.561 L 22489.435 16389.101" style="fill: rgb(27, 23, 29); fill-opacity: 1; fill-rule: nonzero; stroke: none;" id="path-94"/>
      <path d="M 22426.993 16190.025 L 22421.732 16195.564 L 22426.993 16201.104 L 22432.254 16195.564 L 22426.993 16190.025" style="fill: rgb(27, 23, 29); fill-opacity: 1; fill-rule: nonzero; stroke: none;" id="path-95"/>
      <path d="M 22619.926 15731.386 L 22625.187 15736.926 L 22630.448 15731.386 L 22625.187 15725.846 L 22619.926 15731.386" style="fill: rgb(27, 23, 29); fill-opacity: 1; fill-rule: nonzero; stroke: none;" id="path-96"/>
      <path d="M 22198.786 16266.04 L 22193.525 16271.58 L 22198.786 16277.03 L 22204.133 16271.58 L 22198.786 16266.04" style="fill: rgb(27, 23, 29); fill-opacity: 1; fill-rule: nonzero; stroke: none;" id="path-97"/>
      <path d="M 22657.184 16997.864 L 22651.923 17003.404 L 22657.184 17008.943 L 22662.531 17003.404 L 22657.184 16997.864" style="fill: rgb(27, 23, 29); fill-opacity: 1; fill-rule: nonzero; stroke: none;" id="path-98"/>
      <path d="M 22382.921 16422.795 L 22388.182 16428.244 L 22393.443 16422.795 L 22388.182 16417.255 L 22382.921 16422.795" style="fill: rgb(27, 23, 29); fill-opacity: 1; fill-rule: nonzero; stroke: none;" id="path-99"/>
      <path d="M 23157.152 16250.873 C 23157.152 16265.314 23168.364 16277.03 23182.164 16277.03 C 23195.963 16277.03 23207.089 16265.314 23207.089 16250.873 C 23207.089 16236.342 23195.963 16224.627 23182.164 16224.627 C 23168.364 16224.627 23157.152 16236.342 23157.152 16250.873" style="fill: rgb(27, 23, 29); fill-opacity: 1; fill-rule: nonzero; stroke: none;" id="path-100"/>
      <path d="M 24606.517 17814.785 C 24896.218 17539.511 25081.647 17118.108 25081.647 16645.485 C 25081.647 16149.155 24877.157 15709.226 24562.273 15435.768 C 24587.112 15445.123 24611.778 15454.841 24636.099 15465.194 C 25174.62 15695.149 25613.871 16167.865 25967.997 16685.899 C 25970.757 16690.077 26009.74 16744.75 26008.619 16746.203 C 26008.619 16746.294 25440.258 17473.668 24606.517 17814.785" style="fill: rgb(16, 14, 17); fill-opacity: 1; fill-rule: nonzero; stroke: none;" id="path-101"/>
      <path d="M 20344.203 17814.785 C 20054.554 17539.511 19869.125 17118.108 19869.125 16645.485 C 19869.125 16149.155 20073.545 15709.226 20388.481 15435.768 C 20363.651 15445.123 20338.942 15454.841 20314.62 15465.194 C 19776.126 15695.149 19336.858 16167.865 18982.757 16685.899 C 18979.989 16690.077 18940.988 16744.75 18942.127 16746.203 C 18942.127 16746.294 19510.445 17473.668 20344.203 17814.785" style="fill: rgb(16, 14, 17); fill-opacity: 1; fill-rule: nonzero; stroke: none;" id="path-102"/>
    </g>
  </g>
</svg>