<?xml version="1.0" encoding="utf-8"?>
<svg viewBox="0 0 500 500" xmlns="http://www.w3.org/2000/svg" xmlns:bx="https://boxy-svg.com">
  <defs>
    <bx:grid x="-1226.747" y="-811.503" width="3822.386" height="1997.023"/>
  </defs>
  <path style="fill-opacity: 1; fill-rule: nonzero; stroke: none; fill: rgb(16, 14, 17);" id="path16" d="M 1133.383 534.077 C 1174.41 524.77 1216.263 516.104 1258.877 508.077 C 1278.716 504.357 1299.636 503.237 1319.036 497.584 C 1360.076 485.597 1386.823 448.224 1406.556 412.13 C 1419.516 388.464 1432.356 365.611 1445.049 343.571 C 1454.049 328.037 1465.569 312.291 1478.329 299.224 C 1501.623 275.464 1522.063 253.664 1539.676 233.784 C 1578.196 190.384 1627.329 133.945 1687.049 64.505 C 1687.449 63.998 1687.422 63.531 1686.982 63.091 L 1686.195 62.345 C 1686.022 62.171 1685.862 62.145 1685.649 62.305 C 1620.716 118.065 1555.689 171.558 1489.396 229.144 C 1483.609 234.198 1477.583 239.238 1472.369 244.918 C 1433.916 286.771 1400.796 319.504 1353.916 341.584 C 1333.063 351.357 1312.37 360.771 1291.823 369.811 C 1232.917 395.677 1188.09 439.73 1152.277 492.504 C 1143.743 505.064 1137.85 518.917 1130.877 532.29 C 1130.543 532.89 1130.837 533.677 1131.49 533.944 C 1132.09 534.184 1132.743 534.21 1133.383 534.077 M 4.453 343.237 C -28.72 329.251 -56.854 311.251 -79.947 289.211 C -92.093 277.597 -104.653 264.358 -117.693 249.464 C -122.027 244.518 -126.627 239.944 -131.533 235.784 C -184.867 190.491 -238.586 144.064 -292.893 98.198 C -308.36 85.158 -323.426 71.425 -338.093 57.025 C -338.626 56.491 -339.506 56.451 -340.053 56.958 L -340.893 57.745 C -341.333 58.118 -341.399 58.758 -341.039 59.198 C -281.853 131.678 -221.8 200.304 -160.827 265.038 C -155.573 270.624 -142.107 283.757 -120.44 304.371 C -100.76 323.131 -83.973 346.624 -70.053 374.864 C -57.427 400.557 -45 424.25 -32.787 445.957 C -19.307 469.917 2.12 492.877 27.946 502.904 C 56.586 514.037 88.959 516.677 119.426 518.397 C 157.653 520.57 194.039 525.304 228.572 532.584 C 229.586 532.797 230.399 531.704 229.932 530.757 C 200.879 473.917 160.493 428.41 108.733 394.331 C 77.786 373.944 39.533 358.037 4.453 343.237 M 1674.342 1168.049 C 1656.102 1160.635 1639.142 1155.209 1623.436 1151.822 C 1594.382 1145.529 1563.809 1150.435 1535.076 1159.102 C 1478.529 1176.209 1377.036 1183.154 1375.85 1183.527 C 1374.676 1183.42 1381.17 1058.822 1368.063 989.702 C 1358.85 936.076 1344.13 889.649 1323.61 840.969 C 1296.69 776.983 1259.09 715.503 1215.957 664.21 C 1121.637 551.983 1004.49 476.357 864.504 437.29 C 824.798 426.21 779.838 418.397 729.558 413.89 C 636.758 405.597 541.358 418.53 453.105 447.584 C 349.105 481.77 258.466 537.664 181.213 615.263 C 126.266 670.45 81.813 732.13 47.826 800.276 C 40.213 815.543 32.866 830.543 25.786 845.343 C 25.173 846.596 24.2 847.369 22.88 847.743 C -33.094 862.743 -90.507 865.689 -146.707 866.196 C -161.093 866.329 -175.24 867.783 -189.093 870.529 C -220.506 876.756 -251.493 890.703 -281.826 897.809 C -321.026 906.996 -361.106 907.329 -402.039 898.836 C -423.746 894.356 -447.266 889.209 -472.666 883.356 C -505.772 875.743 -537.452 874.049 -567.719 878.343 C -573.746 879.196 -574.159 878.049 -568.972 874.863 C -543.852 859.463 -516.132 849.703 -485.826 845.583 C -456.853 841.623 -430.213 839.116 -405.933 838.023 C -390.186 837.316 -377.906 835.863 -369.066 833.689 C -348.146 828.516 -327.386 819.036 -310.053 804.076 C -301.386 796.583 -293.333 789.383 -285.88 782.41 C -284.693 781.29 -285.04 779.29 -286.533 778.65 C -337.879 755.956 -395.266 765.476 -449.439 768.863 C -470.799 770.183 -494.732 770.383 -515.346 767.743 C -551.239 763.143 -584.892 750.476 -616.345 729.73 C -629.945 720.756 -643.119 712.183 -655.852 704.103 C -690.785 681.823 -728.878 670.103 -771.798 666.69 C -816.158 663.13 -859.891 663.503 -903.051 667.743 C -907.931 668.21 -908.131 667.463 -903.665 665.503 C -894.691 661.543 -885.691 658.09 -876.651 655.143 C -842.532 644.037 -804.172 632.09 -761.545 619.29 C -733.878 610.997 -707.172 608.997 -681.412 613.303 C -654.025 617.863 -627.212 630.77 -600.972 641.837 C -570.439 654.703 -543.919 661.103 -512.772 658.557 C -497.746 657.343 -487.892 656.33 -483.186 655.517 C -455.333 650.743 -428.173 646.743 -401.706 643.463 C -375.266 640.183 -352.706 639.197 -334.093 640.49 C -288.053 643.703 -246.92 654.77 -210.693 673.73 C -191.907 683.543 -172.2 694.21 -151.547 705.716 C -118.747 724.036 -84.213 733.583 -47.947 734.37 C -27.4 734.81 -4.214 733.316 21.626 729.863 C 23.08 729.663 24.026 728.196 23.546 726.81 C 11.706 691.676 -5.027 656.943 -26.587 622.637 C -39.76 601.757 -53.44 584.797 -67.627 571.757 C -119.387 524.264 -187.8 508.824 -257.92 512.304 C -297.693 514.304 -339.413 516.544 -378.133 510.384 C -427.906 502.424 -474.119 480.21 -506.306 440.437 C -516.466 427.877 -527.026 412.837 -537.999 395.277 C -555.332 367.517 -581.439 346.957 -610.319 331.931 C -670.479 300.677 -737.265 287.544 -804.505 274.238 C -811.212 272.918 -817.372 270.184 -824.038 269.064 C -825.225 268.864 -825.398 268.318 -824.612 267.438 C -824.238 267.064 -823.838 266.864 -823.358 266.864 C -812.185 267.024 -800.878 266.451 -789.478 265.198 C -750.172 260.904 -709.412 257.384 -667.185 254.611 C -591.599 249.598 -504.759 263.958 -461.759 333.757 C -455.706 343.571 -450.213 352.477 -445.266 360.464 C -422.999 396.557 -362.533 411.117 -323.84 402.451 C -314.08 400.291 -304.333 398.117 -294.613 395.984 C -262.96 389.037 -232.666 390.531 -203.72 400.517 C -202.426 400.957 -202.093 400.584 -202.706 399.371 C -226.573 352.544 -248.306 310.704 -267.84 273.864 C -314.32 186.291 -365.173 96.945 -420.319 5.772 C -439.719 -26.295 -458.413 -55.948 -476.452 -83.228 C -478.386 -86.148 -477.906 -86.615 -475.026 -84.615 C -419.479 -45.988 -360.773 -7.775 -298.92 30.011 C -243.026 64.145 -184.787 98.371 -127.947 132.998 C -73.133 166.344 -17.28 197.824 39.6 227.424 C 40.573 227.931 41.36 227.731 41.973 226.811 L 42.546 225.891 C 42.706 225.664 42.68 225.424 42.44 225.251 C 20.746 208.291 4.493 189.024 -6.347 167.464 C -23.574 133.171 -25.747 97.718 -12.814 61.118 C -9.867 52.825 -7.494 44.598 -5.667 36.478 C 2.493 0.492 -5.56 -29.335 -29.774 -53.028 C -45 -67.962 -66.333 -75.108 -83.733 -87.695 C -111.707 -107.975 -131.64 -135.268 -143.587 -169.561 C -155.067 -202.508 -160.08 -234.321 -158.653 -264.961 C -157.773 -283.614 -154.96 -303.521 -150.227 -324.721 C -135.293 -391.374 -114.707 -454.481 -97.653 -520.6 C -97.413 -521.587 -96.467 -522.2 -95.48 -522.027 L -94.6 -521.854 C -94.133 -521.76 -93.92 -521.48 -93.96 -521.04 C -99.613 -460.641 -102.08 -397.707 -101.413 -332.241 C -100.627 -259.148 -68.067 -184.361 -0.894 -150.508 C 8.48 -145.801 17.08 -140.961 24.906 -136.015 C 82.079 -99.962 112.653 -36.175 115.973 31.065 C 117.359 58.651 118.213 86.891 118.586 115.798 C 119.186 161.704 143.706 209.891 173.826 245.971 C 207.252 286.051 248.786 319.544 293.746 344.957 C 311.519 355.024 331.292 362.971 353.065 368.837 C 354.385 369.171 355.799 368.624 356.519 367.477 C 369.212 347.611 378.212 321.877 374.185 298.277 C 369.079 268.424 349.905 241.904 329.839 218.691 C 316.292 203.078 301.866 184.118 286.599 161.744 C 233.692 84.451 217.572 -14.002 233.386 -107.162 C 236.532 -125.681 239.719 -144.201 242.866 -162.761 C 244.212 -170.815 243.132 -182.801 239.612 -198.708 C 233.319 -227.188 214.426 -257.894 201.519 -284.868 C 183.453 -322.761 178.533 -359.414 186.799 -394.934 C 191.599 -415.587 199.759 -438.881 211.279 -464.814 C 228.746 -504.081 246.279 -541.694 263.852 -577.614 C 270.186 -590.574 271.706 -590.04 268.426 -575.987 C 255.759 -522.267 249.026 -466.161 248.239 -407.694 C 247.732 -371.574 254.812 -339.614 269.399 -311.894 C 299.946 -253.935 362.772 -200.815 358.745 -133.335 C 357.999 -121.042 357.319 -109.068 356.745 -97.322 C 354.612 -55.882 376.932 -25.042 400.692 9.931 C 408.345 21.238 414.545 34.785 417.385 48.225 C 420.292 61.971 429.599 75.891 445.319 89.971 C 446.572 91.091 447.679 90.958 448.625 89.558 C 463.999 66.878 476.252 46.798 475.652 17.958 C 475.345 3.398 473.825 -9.295 471.078 -20.122 C 465.385 -42.642 458.385 -67.122 450.052 -93.562 C 440.265 -124.735 437.759 -156.695 442.532 -189.361 C 445.585 -210.161 448.932 -231.308 452.559 -252.881 C 452.692 -253.655 453.132 -253.961 453.919 -253.721 C 454.292 -253.628 454.585 -253.455 454.825 -253.148 C 455.065 -252.908 455.239 -252.641 455.265 -252.308 C 461.999 -207.855 471.452 -172.548 483.532 -146.375 C 491.972 -128.188 505.132 -104.428 523.118 -75.068 C 532.692 -59.362 541.052 -40.308 548.198 -17.855 C 565.358 36.371 557.278 103.918 536.052 153.718 C 526.198 176.838 515.158 202.158 502.932 229.758 C 481.838 277.384 472.798 327.771 475.852 380.917 C 476.492 391.651 477.172 402.037 477.918 412.104 C 478.118 414.77 478.972 415.01 480.452 412.77 C 483.532 408.21 486.825 403.904 490.372 399.837 C 511.198 375.904 531.918 352.237 552.572 328.851 C 582.692 294.797 612.825 256.771 631.411 216.278 C 649.318 177.251 654.611 135.265 647.265 90.411 C 639.638 43.785 622.411 2.558 608.225 -41.722 C 590.892 -95.828 594.518 -146.641 605.958 -202.268 C 622.105 -280.774 634.025 -349.401 641.705 -408.067 C 654.678 -506.921 667.238 -602.934 679.385 -696.067 C 679.518 -697.093 679.998 -697.253 680.771 -696.573 C 681.078 -696.307 681.278 -695.933 681.318 -695.533 C 685.478 -660.427 690.491 -623.76 694.145 -589.534 C 715.678 -388.134 733.184 -187.641 746.691 11.971 C 750.104 62.611 751.704 113.198 760.744 162.651 C 777.664 255.424 809.118 345.411 862.704 421.144 C 864.264 423.344 865.277 423.13 865.717 420.464 C 870.597 391.144 873.677 362.504 874.931 334.504 C 877.504 276.984 865.184 224.038 836.784 176.091 C 816.224 141.465 801.398 108.078 792.998 67.518 C 782.784 18.158 795.304 -32.082 820.158 -75.615 C 830.211 -93.255 839.998 -110.242 849.478 -126.561 C 873.917 -168.708 889.691 -214.588 895.317 -262.868 C 896.024 -268.921 897.104 -268.988 898.624 -263.068 C 903.197 -245.161 906.651 -226.975 908.917 -208.601 C 913.224 -174.095 910.037 -139.161 899.344 -103.748 C 891.891 -79.028 881.464 -54.255 879.771 -29.228 C 878.317 -8.108 880.851 13.971 887.357 37.025 C 892.971 56.931 904.291 75.371 921.251 92.371 C 922.131 93.251 923.411 93.518 924.571 93.118 C 943.144 86.651 957.544 75.851 967.691 60.691 C 986.144 33.198 994.104 0.012 995.731 -35.428 C 996.851 -59.428 998.237 -83.362 999.93 -107.308 C 1002.024 -137.095 1007.037 -165.161 1017.597 -193.401 C 1027.997 -221.121 1039.81 -245.668 1053.077 -266.961 C 1077.624 -306.308 1101.317 -341.481 1103.517 -389.147 C 1106.597 -455.094 1097.09 -521.614 1080.597 -585.294 C 1080.437 -585.88 1080.437 -586.48 1080.597 -587.067 C 1080.664 -587.36 1080.877 -587.574 1081.184 -587.667 C 1081.917 -587.867 1082.464 -587.64 1082.837 -586.96 C 1112.69 -529.174 1137.41 -476.734 1157.01 -429.641 C 1176.21 -383.561 1175.13 -337.614 1153.73 -291.841 C 1133.89 -249.388 1103.01 -197.188 1113.104 -148.201 C 1118.077 -124.055 1122.89 -100.428 1127.517 -77.375 C 1132.81 -51.175 1135.037 -23.748 1134.263 4.892 C 1133.077 46.198 1122.89 83.438 1103.69 116.651 C 1090.73 139.065 1076.81 159.411 1061.877 177.718 C 1032.49 213.771 1008.29 250.984 1003.544 297.504 C 1001.717 315.437 1001.717 333.891 1003.584 352.851 C 1005.277 370.091 1007.477 386.904 1010.144 403.397 C 1010.357 404.651 1010.957 404.891 1011.944 404.037 C 1053.41 368.291 1097.73 336.531 1141.103 303.224 C 1196.583 260.664 1224.143 200.984 1229.863 132.531 C 1231.837 109.238 1233.157 83.771 1233.863 56.118 C 1235.73 -18.775 1262.676 -93.655 1328.996 -134.321 C 1345.69 -144.548 1363.556 -153.348 1378.796 -165.801 C 1416.503 -196.681 1440.076 -247.188 1448.303 -294.921 C 1453.956 -327.761 1457.129 -362.401 1458.183 -396.867 C 1459.236 -432.814 1460.649 -469.214 1457.369 -504.934 C 1455.409 -526.16 1457.129 -526.454 1462.583 -505.841 C 1475.516 -456.827 1487.676 -409.054 1499.076 -362.508 C 1505.783 -335.174 1510.183 -304.068 1512.249 -269.094 C 1516.649 -194.281 1489.529 -110.455 1418.983 -72.468 C 1410.889 -68.095 1403.209 -63.695 1395.929 -59.202 C 1354.796 -33.842 1343.343 23.305 1357.09 66.638 C 1370.196 108.011 1372.503 146.411 1353.063 186.358 C 1350.69 191.198 1347.103 194.851 1343.623 198.811 C 1341.756 200.944 1341.996 201.251 1344.37 199.691 C 1358.25 190.558 1372.023 182.091 1386.85 174.038 C 1448.169 140.691 1511.703 107.238 1573.356 72.198 C 1643.476 32.385 1712.369 -8.815 1780.009 -51.442 C 1797.382 -62.375 1814.368 -73.922 1830.955 -86.042 C 1831.435 -86.375 1832.115 -86.215 1832.382 -85.668 C 1832.648 -85.095 1832.582 -84.522 1832.182 -83.948 C 1822.662 -70.468 1813.488 -56.482 1804.662 -42.002 C 1730.542 79.505 1658.062 201.118 1587.209 322.824 C 1573.329 346.651 1557.649 370.184 1540.689 392.197 C 1539.169 394.157 1539.436 394.424 1541.502 393.037 C 1559.009 381.091 1578.369 375.064 1599.569 374.931 C 1628.502 374.717 1653.622 391.651 1682.475 395.171 C 1710.129 398.517 1736.569 392.771 1761.862 377.837 C 1776.515 369.171 1784.715 351.904 1793.208 337.477 C 1814.648 301.091 1849.008 277.251 1891.488 264.624 C 1915.395 257.518 1937.461 253.224 1957.675 251.731 C 1974.981 250.438 1997.421 251.491 2025.021 254.878 C 2080.194 261.651 2132.608 269.744 2182.208 279.157 C 2182.888 279.291 2183.394 279.891 2183.394 280.571 L 2183.421 281.584 C 2183.461 281.997 2183.248 282.197 2182.808 282.157 C 2162.634 281.077 2141.448 281.891 2119.234 284.597 C 2087.981 288.424 2057.274 293.877 2027.088 300.917 C 1966.888 314.971 1912.822 341.584 1875.955 390.877 C 1865.662 404.624 1857.502 420.117 1847.182 433.424 C 1806.248 486.21 1743.169 512.41 1676.142 515.53 C 1660.395 516.277 1644.756 516.304 1629.222 515.664 C 1603.796 514.61 1587.742 514.37 1581.076 514.957 C 1540.729 518.37 1506.529 526.997 1478.463 540.85 C 1411.463 573.93 1363.663 625.117 1335.09 694.45 C 1334.41 696.143 1335.09 698.076 1336.716 698.916 C 1363.93 713.503 1399.036 724.303 1429.343 715.37 C 1447.929 709.916 1465.596 703.076 1482.289 694.89 C 1514.116 679.276 1547.222 662.797 1581.649 645.397 C 1601.329 635.477 1625.769 627.89 1654.982 622.637 C 1670.795 619.837 1688.635 620.17 1708.569 623.73 C 1735.822 628.57 1762.635 637.197 1789.049 649.69 C 1826.155 667.223 1861.355 684.596 1902.768 665.983 C 1916.648 659.743 1931.168 652.503 1946.301 644.21 C 1984.768 623.157 2032.661 605.81 2073.634 614.01 C 2096.554 618.61 2120.221 624.637 2144.688 632.117 C 2178.821 642.543 2211.421 652.743 2242.501 662.663 C 2253.194 666.077 2252.954 667.303 2241.794 666.317 C 2194.461 662.117 2147.101 662.757 2099.288 669.023 C 2051.421 675.316 2015.475 688.903 1976.675 715.783 C 1954.941 730.876 1933.741 744.73 1913.088 757.316 C 1898.768 766.023 1880.902 774.983 1864.208 778.516 C 1807.155 790.463 1763.689 750.65 1709.115 746.556 C 1674.955 743.983 1645.542 754.636 1620.889 778.516 C 1620.076 779.29 1620.182 779.97 1621.156 780.543 C 1651.196 797.13 1680.435 813.476 1708.942 829.596 C 1724.755 838.569 1743.515 846.489 1765.182 853.369 C 1782.249 858.743 1801.848 861.929 1823.982 862.916 C 1856.515 864.329 1886.888 862.943 1915.128 858.743 C 1918.102 858.303 1918.448 859.049 1916.168 861.009 C 1915.195 861.863 1914.008 862.569 1912.688 863.116 C 1877.515 877.876 1842.035 889.623 1806.182 898.316 C 1752.995 911.223 1696.555 910.743 1636.902 896.903 C 1579.582 883.636 1523.796 860.876 1467.156 842.489 C 1417.023 826.249 1383.063 841.449 1356.21 885.049 C 1354.996 887.049 1355.37 889.649 1357.13 891.209 C 1391.823 922.049 1427.516 954.622 1468.716 977.236 C 1510.556 1000.222 1555.582 1002.596 1601.329 993.996 C 1623.462 989.836 1648.556 984.182 1676.582 977.062 C 1705.489 969.729 1727.769 965.662 1743.382 964.849 C 1764.502 963.729 1787.222 965.529 1811.568 970.169 C 1856.075 978.622 1900.768 989.662 1946.128 997.822 C 2000.568 1007.609 2057.794 1015.969 2117.741 1022.876 C 2202.821 1032.689 2277.647 1040.782 2342.167 1047.116 C 2396.74 1052.502 2452.034 1059.196 2505.553 1063.502 C 2505.86 1063.529 2506.1 1063.636 2506.26 1063.876 C 2506.367 1063.969 2506.367 1064.076 2506.3 1064.209 C 2506.193 1064.516 2505.953 1064.716 2505.62 1064.756 C 2479.887 1067.836 2454.02 1069.262 2428.327 1072.035 C 2350.127 1080.502 2272.061 1088.955 2194.154 1097.422 C 2148.888 1102.329 2094.861 1115.569 2053.315 1121.222 C 2014.688 1126.475 1973.021 1129.275 1928.221 1129.582 C 1867.022 1130.022 1805.462 1124.609 1746.462 1107.889 C 1724.995 1101.795 1701.529 1095.355 1676.102 1088.555 C 1675.902 1088.515 1675.702 1088.489 1675.462 1088.449 C 1672.729 1088.249 1671.435 1088.649 1671.569 1089.635 C 1671.675 1090.209 1671.942 1090.622 1672.449 1090.929 C 1715.075 1116.115 1756.315 1146.315 1786.875 1183.755"/>
  <path style="fill-opacity: 1; fill-rule: nonzero; stroke: none; fill: rgb(16, 14, 17);" id="path18" d="M 1320.596 1006.009 L 1325.039 1181.773 C 1184.891 1181.773 24.964 1203.066 22.564 1181.773 C 18.671 1093.813 32.253 979.436 60.826 896.223 C 128.733 704.61 283.426 551.21 478.598 492.197 C 576.265 462.677 674.478 455.064 773.238 469.344 C 875.504 484.144 969.584 521.824 1055.477 582.383 C 1074.41 595.73 1092.077 609.81 1108.504 624.637 C 1206.543 713.17 1273.036 820.796 1307.97 947.449 C 1313.25 966.502 1316.81 986.449 1320.596 1006.009"/>
  <path style="fill-opacity: 1; fill-rule: nonzero; stroke: none; fill: rgb(16, 14, 17);" id="path20" d="M -11.934 973.382 C -25.2 1034.422 -32.44 1144.782 -24.147 1185.009 C -59.627 1153.515 -186.08 1170.075 -221.866 1169.702 C -238.346 1169.529 -369.337 1128.245 -372.789 1126.334 C -403.617 1109.275 -424.146 1101.28 -453.587 1086.316 C -476.249 1074.797 -499.102 1078.382 -524.146 1085.009 C -562.406 1095.133 -610.326 1100.157 -644.459 1119.117 C -653.192 1123.957 -666.959 1130.595 -676.972 1128.809 C -716.625 1121.795 -757.652 1115.062 -800.105 1108.595 C -834.505 1103.342 -888.331 1096.875 -961.558 1089.169 C -1025.612 1082.395 -1087.804 1073.449 -1152.533 1064.316 C -1153.076 1064.249 -1153.415 1063.702 -1153.279 1063.196 C -1153.177 1062.756 -1152.907 1062.556 -1152.5 1062.516 C -1113.228 1060.382 -1065.324 1054.729 -1032.519 1051.516 C -939.345 1042.409 -846.212 1032.996 -753.145 1023.342 C -745.332 1022.542 -737.705 1021.729 -730.358 1020.916 C -636.145 1010.556 -547.546 1000.529 -464.506 990.876 C -403.733 983.809 -343.706 986.622 -284.026 985.876 C -215.533 985.022 -151.813 975.076 -92.88 956.076 C -62.68 946.369 -38.212 822.533 -7.573 809.159 C -6.453 808.693 32.161 823.085 31.855 824.272 L -11.934 973.382"/>
  <path style="fill: rgb(16, 14, 17); fill-opacity: 1; fill-rule: nonzero; stroke: none;" id="path-4" d="M 596.862 1143.387 C 597.971 1138.519 602.621 1135.528 607.24 1136.69 C 611.863 1137.865 614.703 1142.757 613.588 1147.625"/>
  <path style="fill: rgb(16, 14, 17); fill-opacity: 1; fill-rule: nonzero; stroke: none;" id="path-7" d="M 715.346 1147.346 C 714.392 1142.442 717.382 1137.647 722.039 1136.63 C 726.639 1135.588 731.238 1138.761 732.204 1143.665"/>
  <path style="fill: rgb(16, 14, 17); fill-opacity: 1; fill-rule: nonzero; stroke: none;" id="path-8" d="M 379.352 1071.482 C 383.23 1068.612 388.596 1069.593 391.337 1073.698 C 394.071 1077.791 393.128 1083.446 389.236 1086.316"/>
  <path style="fill: rgb(16, 14, 17); fill-opacity: 1; fill-rule: nonzero; stroke: none;" id="path-9" d="M 239.483 937.626 C 243.943 935.98 248.874 938.51 250.42 943.245 C 251.97 947.98 249.579 953.138 245.086 954.761"/>
  <path style="fill: rgb(16, 14, 17); fill-opacity: 1; fill-rule: nonzero; stroke: none;" id="path-10" d="M 1096.357 954.761 C 1091.873 953.138 1089.481 947.98 1091.033 943.245 C 1092.574 938.51 1097.484 935.98 1101.969 937.626"/>
  <path style="fill: rgb(16, 14, 17); fill-opacity: 1; fill-rule: nonzero; stroke: none;" id="path-11" d="M 482.407 1122.922 C 485.162 1118.841 490.553 1117.897 494.407 1120.803 C 498.278 1123.709 499.175 1129.376 496.413 1133.445"/>
  <path style="fill: rgb(16, 14, 17); fill-opacity: 1; fill-rule: nonzero; stroke: none;" id="path-12" d="M 963.907 1076.047 C 960.089 1073.056 959.295 1067.389 962.124 1063.369 C 964.965 1059.348 970.358 1058.513 974.164 1061.492"/>
  <path style="fill: rgb(16, 14, 17); fill-opacity: 1; fill-rule: nonzero; stroke: none;" id="path-13" d="M 852.293 1133.445 C 849.533 1129.376 850.43 1123.709 854.294 1120.803 C 858.158 1117.897 863.54 1118.841 866.299 1122.922"/>
  <path style="fill: rgb(27, 23, 29); fill-opacity: 1; fill-rule: nonzero; stroke: none;" id="path-14" d="M 813.643 594.899 L 783.768 660.228 L 764.541 650.286 L 795.348 585.454 L 813.643 594.899"/>
  <path style="fill: rgb(27, 23, 29); fill-opacity: 1; fill-rule: nonzero; stroke: none;" id="path-15" d="M 753.743 725.46 L 723.557 790.608 L 703.375 780.182 L 733.883 715.192 L 753.743 725.46"/>
  <path style="fill: rgb(27, 23, 29); fill-opacity: 1; fill-rule: nonzero; stroke: none;" id="path-16" d="M 693.359 855.768 L 662.978 920.819 L 642.578 910.272 L 672.879 845.172 L 693.359 855.768"/>
  <path style="fill: rgb(27, 23, 29); fill-opacity: 1; fill-rule: nonzero; stroke: none;" id="path-17" d="M 632.481 985.821 L 601.977 1050.811 L 582.206 1040.579 L 612.392 975.431 L 632.481 985.821"/>
  <path style="fill: rgb(27, 23, 29); fill-opacity: 1; fill-rule: nonzero; stroke: none;" id="path-18" d="M 572.809 578.769 L 598.952 645.842 L 579.057 654.246 L 553.889 586.761 L 572.809 578.769"/>
  <path style="fill: rgb(27, 23, 29); fill-opacity: 1; fill-rule: nonzero; stroke: none;" id="path-19" d="M 624.926 712.976 L 650.731 780.182 L 629.871 789.01 L 604.377 721.658 L 624.926 712.976"/>
  <path style="fill: rgb(27, 23, 29); fill-opacity: 1; fill-rule: nonzero; stroke: none;" id="path-20" d="M 676.559 847.388 L 702.145 914.691 L 681.066 923.592 L 655.354 856.349 L 676.559 847.388"/>
  <path style="fill: rgb(27, 23, 29); fill-opacity: 1; fill-rule: nonzero; stroke: none;" id="path-21" d="M 727.628 982.031 L 753.122 1049.37 L 732.699 1058.016 L 706.883 990.81 L 727.628 982.031"/>
  <path style="fill: rgb(27, 23, 29); fill-opacity: 1; fill-rule: nonzero; stroke: none;" id="path-23" d="M 376.663 732.593 L 440.605 759.451 L 432.638 780.049 L 369.072 752.198 L 376.663 732.593"/>
  <path style="fill: rgb(27, 23, 29); fill-opacity: 1; fill-rule: nonzero; stroke: none;" id="path-24" d="M 504.53 786.37 L 568.35 813.567 L 559.913 835.376 L 496.222 807.852 L 504.53 786.37"/>
  <path style="fill: rgb(27, 23, 29); fill-opacity: 1; fill-rule: nonzero; stroke: none;" id="path-25" d="M 632.171 840.765 L 695.958 868.035 L 687.322 890.34 L 623.604 862.888 L 632.171 840.765"/>
  <path style="fill: rgb(27, 23, 29); fill-opacity: 1; fill-rule: nonzero; stroke: none;" id="path-26" d="M 759.642 895.559 L 823.326 923.083 L 814.966 944.722 L 751.144 917.525 L 759.642 895.559"/>
  <path style="fill: rgb(27, 23, 29); fill-opacity: 1; fill-rule: nonzero; stroke: none;" id="path-27" d="M 886.987 950.716 L 950.544 978.58 L 942.771 998.657 L 878.822 971.799 L 886.987 950.716"/>
  <path style="fill: rgb(27, 23, 29); fill-opacity: 1; fill-rule: nonzero; stroke: none;" id="path-28" d="M 369.038 990.435 L 432.605 962.596 L 440.572 983.193 L 376.624 1010.04 L 369.038 990.435"/>
  <path style="fill: rgb(27, 23, 29); fill-opacity: 1; fill-rule: nonzero; stroke: none;" id="path-29" d="M 496.2 934.817 L 559.897 907.305 L 568.328 929.114 L 504.503 956.287 L 496.2 934.817"/>
  <path style="fill: rgb(27, 23, 29); fill-opacity: 1; fill-rule: nonzero; stroke: none;" id="path-30" d="M 623.592 879.805 L 687.322 852.377 L 695.947 874.683 L 632.148 901.94 L 623.592 879.805"/>
  <path style="fill: rgb(27, 23, 29); fill-opacity: 1; fill-rule: nonzero; stroke: none;" id="path-31" d="M 751.144 825.204 L 814.966 798.031 L 823.337 819.658 L 759.642 847.17 L 751.144 825.204"/>
  <path style="fill: rgb(27, 23, 29); fill-opacity: 1; fill-rule: nonzero; stroke: none;" id="path-32" d="M 878.845 770.955 L 942.794 744.121 L 950.556 764.198 L 886.998 792.037 L 878.845 770.955"/>
  <path style="fill: rgb(27, 23, 29); fill-opacity: 1; fill-rule: nonzero; stroke: none;" id="path-33" d="M 413.32 1117.63 L 462.836 1067.268 L 477.61 1083.567 L 427.501 1133.287 L 413.32 1117.63"/>
  <path style="fill: rgb(27, 23, 29); fill-opacity: 1; fill-rule: nonzero; stroke: none;" id="path-34" d="M 512.431 1016.978 L 562.148 966.822 L 577.567 983.859 L 527.653 1033.786 L 512.431 1016.978"/>
  <path style="fill: rgb(27, 23, 29); fill-opacity: 1; fill-rule: nonzero; stroke: none;" id="path-35" d="M 611.863 916.677 L 661.586 866.533 L 677.398 883.994 L 627.49 933.921 L 611.863 916.677"/>
  <path style="fill: rgb(27, 23, 29); fill-opacity: 1; fill-rule: nonzero; stroke: none;" id="path-36" d="M 711.471 816.583 L 761.39 766.644 L 776.857 783.73 L 727.145 833.874 L 711.471 816.583"/>
  <path style="fill: rgb(27, 23, 29); fill-opacity: 1; fill-rule: nonzero; stroke: none;" id="path-37" d="M 811.298 716.718 L 861.297 666.888 L 876.212 683.345 L 826.58 733.586 L 811.298 716.718"/>
  <path style="fill: rgb(27, 23, 29); fill-opacity: 1; fill-rule: nonzero; stroke: none;" id="path-38" d="M 911.412 617.18 L 925.729 632.982 L 911.412 617.18"/>
  <path style="fill: rgb(27, 23, 29); fill-opacity: 1; fill-rule: nonzero; stroke: none;" id="path-39" d="M 969.38 1182.996 L 982.973 1167.992"/>
  <path style="fill: rgb(27, 23, 29); fill-opacity: 1; fill-rule: nonzero; stroke: none;" id="path-40" d="M 919.266 1133.287 L 869.163 1083.567 L 883.928 1067.268 L 933.445 1117.63 L 919.266 1133.287"/>
  <path style="fill: rgb(27, 23, 29); fill-opacity: 1; fill-rule: nonzero; stroke: none;" id="path-41" d="M 819.117 1033.786 L 769.198 983.859 L 784.619 966.822 L 834.343 1016.978 L 819.117 1033.786"/>
  <path style="fill: rgb(27, 23, 29); fill-opacity: 1; fill-rule: nonzero; stroke: none;" id="path-42" d="M 719.291 933.921 L 669.371 883.994 L 685.183 866.533 L 734.907 916.677 L 719.291 933.921"/>
  <path style="fill: rgb(27, 23, 29); fill-opacity: 1; fill-rule: nonzero; stroke: none;" id="path-43" d="M 619.636 833.874 L 569.914 783.73 L 585.383 766.644 L 635.299 816.583 L 619.636 833.874"/>
  <path style="fill: rgb(27, 23, 29); fill-opacity: 1; fill-rule: nonzero; stroke: none;" id="path-44" d="M 520.196 733.586 L 470.562 683.345 L 485.471 666.888 L 535.47 716.718 L 520.196 733.586"/>
  <path style="fill: rgb(27, 23, 29); fill-opacity: 1; fill-rule: nonzero; stroke: none;" id="path-45" d="M 421.042 632.982 L 435.355 617.18 L 421.042 632.982"/>
  <path style="fill: rgb(27, 23, 29); fill-opacity: 1; fill-rule: nonzero; stroke: none;" id="path-46" d="M 1253.705 880.276 L 1253.707 862.59"/>
  <path style="fill: rgb(27, 23, 29); fill-opacity: 1; fill-rule: nonzero; stroke: none;" id="path-47" d="M 1184.891 880.955 L 1116.044 881.621 L 1116.044 861.084 L 1184.891 861.75 L 1184.891 880.955"/>
  <path style="fill: rgb(27, 23, 29); fill-opacity: 1; fill-rule: nonzero; stroke: none;" id="path-48" d="M 1047.197 882.069 L 978.35 882.505 L 978.35 860.2 L 1047.197 860.636 L 1047.197 882.069"/>
  <path style="fill: rgb(27, 23, 29); fill-opacity: 1; fill-rule: nonzero; stroke: none;" id="path-49" d="M 909.514 882.929 L 840.667 883.074 L 840.667 859.631 L 909.514 859.776 L 909.514 882.929"/>
  <path style="fill: rgb(27, 23, 29); fill-opacity: 1; fill-rule: nonzero; stroke: none;" id="path-50" d="M 771.82 883.22 L 702.973 883.365 L 702.973 859.34 L 771.82 859.485 L 771.82 883.22"/>
  <path style="fill: rgb(27, 23, 29); fill-opacity: 1; fill-rule: nonzero; stroke: none;" id="path-51" d="M 634.126 883.365 L 565.285 883.207 L 565.285 859.497 L 634.126 859.34 L 634.126 883.365"/>
  <path style="fill: rgb(27, 23, 29); fill-opacity: 1; fill-rule: nonzero; stroke: none;" id="path-52" d="M 496.44 883.062 L 427.596 882.917 L 427.596 859.788 L 496.44 859.643 L 496.44 883.062"/>
  <path style="fill: rgb(27, 23, 29); fill-opacity: 1; fill-rule: nonzero; stroke: none;" id="path-53" d="M 358.752 882.481 L 289.907 882.033 L 289.907 860.672 L 358.752 860.224 L 358.752 882.481"/>
  <path style="fill: rgb(27, 23, 29); fill-opacity: 1; fill-rule: nonzero; stroke: none;" id="path-54" d="M 221.061 881.597 L 152.216 880.883 L 152.216 861.823 L 221.061 861.108 L 221.061 881.597"/>
  <path style="fill: rgb(27, 23, 29); fill-opacity: 1; fill-rule: nonzero; stroke: none;" id="path-55" d="M 684.459 674.299 L 684.608 746.797 L 662.161 746.797 L 662.311 674.299 L 684.459 674.299"/>
  <path style="fill: rgb(27, 23, 29); fill-opacity: 1; fill-rule: nonzero; stroke: none;" id="path-56" d="M 684.746 819.295 L 684.827 891.781 L 661.943 891.781 L 662.023 819.295 L 684.746 819.295"/>
  <path style="fill: rgb(27, 23, 29); fill-opacity: 1; fill-rule: nonzero; stroke: none;" id="path-57" d="M 684.677 964.279 L 684.528 1036.777 L 662.242 1036.777 L 662.092 964.279 L 684.677 964.279"/>
  <path style="fill: rgb(27, 23, 29); fill-opacity: 1; fill-rule: nonzero; stroke: none;" id="path-58" d="M 684.39 1109.275 L 683.987 1181.773 L 662.782 1181.773 L 662.38 1109.275 L 684.39 1109.275"/>
  <path style="fill: rgb(255, 255, 255); fill-opacity: 1; fill-rule: nonzero; stroke: none;" id="path-59" d="M 673.385 559.177 C 348.431 564.105 100.42 847.848 100.42 847.848 C 187.217 964.291 293.352 1071.554 423.686 1131.483 C 563.488 1195.759 745.739 1200.469 889.103 1145.772 C 1029.269 1092.31 1143.597 982.37 1235.765 861.871 C 1236.489 860.914 1246.643 848.188 1246.345 847.848 C 1246.333 847.836 998.324 564.105 673.385 559.177"/>
  <path style="fill: rgb(16, 14, 17); fill-opacity: 1; fill-rule: nonzero; stroke: none;" id="path-60" d="M 466.266 1131.483 C 335.932 1071.554 229.796 964.291 143.002 847.848 C 143.002 847.848 380.265 576.626 694.67 560.073 C 687.598 559.697 680.526 559.285 673.385 559.177 C 348.431 564.105 100.42 847.848 100.42 847.848 C 187.217 964.291 293.352 1071.554 423.686 1131.483 C 504.941 1168.84 600.515 1185.926 694.475 1183.081 C 614.588 1180.344 535.256 1163.209 466.266 1131.483"/>
  <path style="fill: rgb(16, 14, 17); fill-opacity: 1; fill-rule: nonzero; stroke: none;" id="path-61" d="M 879.915 1131.483 C 1010.249 1071.554 1116.378 964.291 1203.176 847.848 C 1203.176 847.848 965.908 576.626 651.501 560.073 C 658.585 559.697 665.646 559.285 672.798 559.177 C 997.75 564.105 1245.758 847.848 1245.758 847.848 C 1158.96 964.291 1052.82 1071.554 922.486 1131.483 C 841.242 1168.84 745.659 1185.926 651.697 1183.081 C 731.583 1180.344 810.918 1163.209 879.915 1131.483"/>
  <path style="fill: rgb(16, 14, 17); fill-opacity: 1; fill-rule: nonzero; stroke: none;" id="path-62" d="M 876.637 871.28 C 876.637 989.49 785.631 1085.323 673.385 1085.323 C 561.123 1085.323 470.125 989.49 470.125 871.28 C 470.125 753.07 561.123 657.249 673.385 657.249 C 785.631 657.249 876.637 753.07 876.637 871.28"/>
  <path style="fill: rgb(16, 14, 17); fill-opacity: 1; fill-rule: nonzero; stroke: none;" id="path-63" d="M 673.385 571.455 C 516.381 571.455 388.653 705.953 388.653 871.28 C 388.653 1036.607 516.381 1171.105 673.385 1171.105 C 830.387 1171.105 958.111 1036.607 958.111 871.28 C 958.111 705.953 830.387 571.455 673.385 571.455 Z M 673.385 1183.19 C 510.056 1183.19 377.177 1043.267 377.177 871.28 C 377.177 699.292 510.056 559.37 673.385 559.37 C 836.711 559.37 969.587 699.292 969.587 871.28 C 969.587 1043.267 836.711 1183.19 673.385 1183.19"/>
  <path style="fill: rgb(255, 255, 255); fill-opacity: 1; fill-rule: nonzero; stroke: none;" id="path-64" d="M 676.352 887.773 C 631.711 887.773 592.767 862.222 571.902 824.272 C 561.622 842.969 555.711 864.656 555.711 887.821 C 555.711 957.982 609.724 1014.859 676.352 1014.859 C 742.979 1014.859 797.004 957.982 797.004 887.821 C 797.004 864.656 791.082 842.969 780.801 824.272 C 759.941 862.222 720.992 887.773 676.352 887.773"/>
  <path style="fill: rgb(255, 255, 255); fill-opacity: 1; fill-rule: nonzero; stroke: none;" id="path-65" d="M 717.014 795.658 C 717.014 819.295 698.81 838.464 676.352 838.464 C 653.893 838.464 635.69 819.295 635.69 795.658 C 635.69 772.008 653.893 752.839 676.352 752.839 C 698.81 752.839 717.014 772.008 717.014 795.658"/>
  <path style="fill: rgb(255, 255, 255); fill-opacity: 1; fill-rule: nonzero; stroke: none;" id="path-66" d="M 783.009 871.946 C 781.801 870.917 781.606 869.052 782.583 867.78 C 783.561 866.509 785.332 866.303 786.539 867.332 C 787.747 868.349 787.942 870.214 786.965 871.486 C 785.987 872.769 784.228 872.963 783.009 871.946"/>
  <path style="fill: rgb(27, 23, 29); fill-opacity: 1; fill-rule: nonzero; stroke: none;" id="path-67" d="M 692.865 784.033 L 693.578 783.282 L 694.279 784.033 L 693.578 784.771 L 692.865 784.033"/>
  <path style="fill: rgb(27, 23, 29); fill-opacity: 1; fill-rule: nonzero; stroke: none;" id="path-68" d="M 676.099 808.421 L 676.8 807.682 L 677.513 808.421 L 676.8 809.159 L 676.099 808.421"/>
  <path style="fill: rgb(27, 23, 29); fill-opacity: 1; fill-rule: nonzero; stroke: none;" id="path-69" d="M 611.299 974.329 L 610.598 973.591 L 611.299 972.852 L 612.001 973.591 L 611.299 974.329"/>
  <path style="fill: rgb(27, 23, 29); fill-opacity: 1; fill-rule: nonzero; stroke: none;" id="path-70" d="M 647.568 956.02 C 647.568 955.221 648.178 954.567 648.948 954.567 C 649.707 954.567 650.317 955.221 650.317 956.02 C 650.317 956.82 649.707 957.473 648.948 957.473 C 648.178 957.473 647.568 956.82 647.568 956.02"/>
  <path style="fill: rgb(27, 23, 29); fill-opacity: 1; fill-rule: nonzero; stroke: none;" id="path-71" d="M 729.893 956.02 C 729.893 955.221 730.514 954.567 731.273 954.567 C 732.032 954.567 732.653 955.221 732.653 956.02 C 732.653 956.82 732.032 957.473 731.273 957.473 C 730.514 957.473 729.893 956.82 729.893 956.02"/>
  <path style="fill: rgb(27, 23, 29); fill-opacity: 1; fill-rule: nonzero; stroke: none;" id="path-72" d="M 576.055 886.622 C 576.055 885.605 576.838 884.782 577.813 884.782 C 578.783 884.782 579.566 885.605 579.566 886.622 C 579.566 887.652 578.783 888.475 577.813 888.475 C 576.838 888.475 576.055 887.652 576.055 886.622"/>
  <path style="fill: rgb(27, 23, 29); fill-opacity: 1; fill-rule: nonzero; stroke: none;" id="path-73" d="M 655.25 821.45 L 655.595 821.075 L 655.952 821.45 L 655.595 821.814 L 655.25 821.45"/>
  <path style="fill: rgb(27, 23, 29); fill-opacity: 1; fill-rule: nonzero; stroke: none;" id="path-74" d="M 642.957 784.396 L 642.612 784.771 L 642.256 784.396 L 642.612 784.033 L 642.957 784.396"/>
  <path style="fill: rgb(255, 255, 255); fill-opacity: 1; fill-rule: nonzero; stroke: none;" id="path-75" d="M 761.804 871.486 L 761.459 871.861 L 761.102 871.486 L 761.459 871.123 L 761.804 871.486"/>
  <path style="fill: rgb(27, 23, 29); fill-opacity: 1; fill-rule: nonzero; stroke: none;" id="path-76" d="M 703.042 925.469 L 703.387 925.105 L 703.732 925.469 L 703.387 925.832 L 703.042 925.469"/>
  <path style="fill: rgb(27, 23, 29); fill-opacity: 1; fill-rule: nonzero; stroke: none;" id="path-77" d="M 704.433 886.998 L 704.79 886.622 L 705.135 886.998 L 704.79 887.361 L 704.433 886.998"/>
  <path style="fill: rgb(27, 23, 29); fill-opacity: 1; fill-rule: nonzero; stroke: none;" id="path-78" d="M 758.044 969.994 L 758.09 970.503 L 757.595 970.563 L 757.549 970.043 L 758.044 969.994"/>
  <path style="fill: rgb(27, 23, 29); fill-opacity: 1; fill-rule: nonzero; stroke: none;" id="path-79" d="M 584.535 955.657 L 584.883 955.294 L 585.231 955.657 L 584.883 956.02 L 584.535 955.657"/>
  <path style="fill: rgb(27, 23, 29); fill-opacity: 1; fill-rule: nonzero; stroke: none;" id="path-80" d="M 707.377 963.153 L 707.032 962.789 L 707.377 962.426 L 707.722 962.789 L 707.377 963.153"/>
  <path style="fill: rgb(27, 23, 29); fill-opacity: 1; fill-rule: nonzero; stroke: none;" id="path-81" d="M 665.772 973.215 L 665.416 973.591 L 665.071 973.215 L 665.416 972.852 L 665.772 973.215"/>
  <path style="fill: rgb(27, 23, 29); fill-opacity: 1; fill-rule: nonzero; stroke: none;" id="path-82" d="M 672.971 1002.241 L 672.626 1001.878 L 672.971 1001.503 L 673.327 1001.878 L 672.971 1002.241"/>
  <path style="fill: rgb(255, 255, 255); fill-opacity: 1; fill-rule: nonzero; stroke: none;" id="path-83" d="M 692.06 1011.602 L 691.887 1011.977 L 691.715 1011.602 L 691.887 1011.238 L 692.06 1011.602"/>
  <path style="fill: rgb(27, 23, 29); fill-opacity: 1; fill-rule: nonzero; stroke: none;" id="path-84" d="M 768.485 945.594 L 768.531 946.115 L 768.037 946.176 L 767.991 945.655 L 768.485 945.594"/>
  <path style="fill: rgb(27, 23, 29); fill-opacity: 1; fill-rule: nonzero; stroke: none;" id="path-85" d="M 664.438 773.764 L 664.783 773.401 L 665.14 773.764 L 664.783 774.14 L 664.438 773.764"/>
  <path style="fill: rgb(27, 23, 29); fill-opacity: 1; fill-rule: nonzero; stroke: none;" id="path-86" d="M 677.157 758.107 L 676.8 757.744 L 677.157 757.368 L 677.502 757.744 L 677.157 758.107"/>
  <path style="fill: rgb(27, 23, 29); fill-opacity: 1; fill-rule: nonzero; stroke: none;" id="path-87" d="M 585.231 925.832 L 585.578 925.469 L 585.926 925.832 L 585.578 926.207 L 585.231 925.832"/>
  <path style="fill: rgb(27, 23, 29); fill-opacity: 1; fill-rule: nonzero; stroke: none;" id="path-88" d="M 691.841 903.902 L 691.496 903.539 L 691.841 903.176 L 692.186 903.539 L 691.841 903.902"/>
  <path style="fill: rgb(27, 23, 29); fill-opacity: 1; fill-rule: nonzero; stroke: none;" id="path-89" d="M 704.088 793.151 L 703.732 793.514 L 703.387 793.151 L 703.732 792.788 L 704.088 793.151"/>
  <path style="fill: rgb(27, 23, 29); fill-opacity: 1; fill-rule: nonzero; stroke: none;" id="path-90" d="M 664.438 805.636 L 664.783 805.272 L 665.14 805.636 L 664.783 806.011 L 664.438 805.636"/>
  <path style="fill: rgb(27, 23, 29); fill-opacity: 1; fill-rule: nonzero; stroke: none;" id="path-91" d="M 621.407 941.235 L 622.109 940.496 L 622.81 941.235 L 622.109 941.962 L 621.407 941.235"/>
  <path style="fill: rgb(27, 23, 29); fill-opacity: 1; fill-rule: nonzero; stroke: none;" id="path-92" d="M 627.824 892.786 L 627.122 892.047 L 627.824 891.309 L 628.525 892.047 L 627.824 892.786"/>
  <path style="fill: rgb(27, 23, 29); fill-opacity: 1; fill-rule: nonzero; stroke: none;" id="path-93" d="M 739.368 896.637 L 740.07 895.898 L 740.771 896.637 L 740.07 897.375 L 739.368 896.637"/>
  <path style="fill: rgb(27, 23, 29); fill-opacity: 1; fill-rule: nonzero; stroke: none;" id="path-94" d="M 674.443 901.129 L 675.144 900.403 L 675.846 901.129 L 675.144 901.868 L 674.443 901.129"/>
  <path style="fill: rgb(27, 23, 29); fill-opacity: 1; fill-rule: nonzero; stroke: none;" id="path-95" d="M 666.117 927.673 L 665.416 926.934 L 666.117 926.195 L 666.819 926.934 L 666.117 927.673"/>
  <path style="fill: rgb(27, 23, 29); fill-opacity: 1; fill-rule: nonzero; stroke: none;" id="path-96" d="M 691.841 988.824 L 692.543 988.086 L 693.244 988.824 L 692.543 989.563 L 691.841 988.824"/>
  <path style="fill: rgb(27, 23, 29); fill-opacity: 1; fill-rule: nonzero; stroke: none;" id="path-97" d="M 635.69 917.537 L 634.988 916.799 L 635.69 916.072 L 636.402 916.799 L 635.69 917.537"/>
  <path style="fill: rgb(27, 23, 29); fill-opacity: 1; fill-rule: nonzero; stroke: none;" id="path-98" d="M 696.809 819.961 L 696.108 819.222 L 696.809 818.484 L 697.522 819.222 L 696.809 819.961"/>
  <path style="fill: rgb(27, 23, 29); fill-opacity: 1; fill-rule: nonzero; stroke: none;" id="path-99" d="M 660.241 896.637 L 660.942 895.91 L 661.644 896.637 L 660.942 897.375 L 660.241 896.637"/>
  <path style="fill: rgb(27, 23, 29); fill-opacity: 1; fill-rule: nonzero; stroke: none;" id="path-100" d="M 763.471 919.559 C 763.471 917.634 764.966 916.072 766.806 916.072 C 768.646 916.072 770.13 917.634 770.13 919.559 C 770.13 921.497 768.646 923.059 766.806 923.059 C 764.966 923.059 763.471 921.497 763.471 919.559"/>
  <path style="fill: rgb(16, 14, 17); fill-opacity: 1; fill-rule: nonzero; stroke: none;" id="path-101" d="M 956.72 711.038 C 995.346 747.742 1020.07 803.928 1020.07 866.945 C 1020.07 933.122 992.805 991.779 950.82 1028.24 C 954.132 1026.993 957.421 1025.697 960.664 1024.316 C 1032.466 993.656 1091.033 930.627 1138.25 861.556 C 1138.618 860.999 1143.815 853.709 1143.666 853.516 C 1143.666 853.504 1067.885 756.521 956.72 711.038"/>
  <path style="fill: rgb(16, 14, 17); fill-opacity: 1; fill-rule: nonzero; stroke: none;" id="path-102" d="M 388.412 711.038 C 349.793 747.742 325.069 803.928 325.069 866.945 C 325.069 933.122 352.325 991.779 394.316 1028.24 C 391.005 1026.993 387.711 1025.697 384.468 1024.316 C 312.669 993.656 254.1 930.627 206.887 861.556 C 206.518 860.999 201.318 853.709 201.469 853.516 C 201.469 853.504 277.245 756.521 388.412 711.038"/>
</svg>