<?xml version="1.0" encoding="utf-8"?>
<svg viewBox="0 0 5334.6665 5334.6665" height="5334.6665" width="5334.6665" id="svg2" version="1.1" xmlns="http://www.w3.org/2000/svg">
  <defs id="defs6"/>
  <g transform="matrix(1.3333333,0,0,-1.3333333,0,5334.6667)" id="g10">
    <g transform="scale(0.1)" id="g12">
      <g transform="scale(2.45449)" id="g14"/>
      <g transform="scale(2.14296)" id="g18">
        <path id="path20" style="fill:#000000;fill-opacity:1;fill-rule:nonzero;stroke:none" d="m 9601.51,15836.2 3137.09,-5433.6 v -1.2 l 3405,-5897.75 H 2523.8 l 3405.03,5897.75 v 1.2 l 3404.9,5897.4 z m 2602.09,-5743.5 -0.6,-0.3 -2869.28,4969.7 -2869.3,-4969.7 -0.53,0.3 L 3595.26,5124.05 H 15072.2 l -2868.6,4968.65"/>
      </g>
      <g transform="scale(1.69542)" id="g22">
        <path id="path24" style="fill:#000000;fill-opacity:1;fill-rule:nonzero;stroke:none" d="m 11797.5,8762.63 c 836.9,0 1612.2,206.48 2254.6,560.47 586.9,323.44 1061.4,768.2 1367.2,1288 -305.8,519.9 -780.3,964.6 -1367.2,1288 -642.4,354 -1417.7,560.5 -2254.6,560.5 -836.8,0 -1612.1,-206.5 -2254.47,-560.5 -586.93,-323.4 -1061.41,-768.1 -1367.26,-1288 305.85,-519.8 780.32,-964.56 1367.26,-1288 642.37,-353.99 1417.67,-560.47 2254.47,-560.47 z m 2631.3,-125.68 c -754.7,-415.9 -1659.9,-658.49 -2631.3,-658.49 -971.3,0 -1876.51,242.59 -2631.24,658.49 -788.19,434.34 -1414,1059.95 -1783.86,1799.55 l -87.31,174.6 87.31,174.6 c 369.86,739.6 995.67,1365.2 1783.86,1799.6 754.73,415.9 1659.94,658.5 2631.24,658.5 971.4,0 1876.6,-242.6 2631.3,-658.5 788.2,-434.4 1414,-1060 1783.9,-1799.6 l 87.3,-174.6 -87.3,-174.6 C 15842.8,9696.9 15217,9071.29 14428.8,8636.95"/>
      </g>
      <g transform="scale(1.39047)" id="g26">
        <path id="path28" style="fill:#000000;fill-opacity:1;fill-rule:evenodd;stroke:none" d="m 14384.9,14525.3 c 1057.7,0 1915.1,-857.4 1915.1,-1915.1 0,-1057.6 -857.4,-1915 -1915.1,-1915 -1057.6,0 -1915,857.4 -1915,1915 0,1057.7 857.4,1915.1 1915,1915.1"/>
      </g>
      <g transform="scale(1.37943)" id="g30">
        <path id="path32" style="fill:#ffffff;fill-opacity:1;fill-rule:evenodd;stroke:none" d="m 15491.3,14419.8 c 446.7,0 808.7,-362.1 808.7,-808.7 0,-446.6 -362,-808.7 -808.7,-808.7 -446.6,0 -808.6,362.1 -808.6,808.7 0,446.6 362,808.7 808.6,808.7"/>
      </g>
      <g transform="scale(1.64683)" id="g34">
        <path id="path36" style="fill:#000000;fill-opacity:1;fill-rule:nonzero;stroke:none" d="m 8124.74,10981.9 c 1340.98,1103.1 2694.66,1654.7 4060.96,1654.7 1365.4,0 2736.8,-551.2 4114.3,-1653.6 l -180.6,-226.1 c -1323.6,1059.2 -2634.8,1588.8 -3933.7,1588.8 -1297.9,0 -2590.24,-529.2 -3876.91,-1587.7 l -184.05,223.9"/>
      </g>
      <g transform="scale(2.01877)" id="g38">
        <path id="path40" style="fill:#000000;fill-opacity:1;fill-rule:nonzero;stroke:none" d="m 9907.91,15303.6 c 1765.09,0 3363.09,-715.5 4519.89,-1872.2 C 15584.5,12274.6 16300,10676.6 16300,8911.52 16300,7146.43 15584.5,5548.41 14427.8,4391.66 13271,3234.9 11673,2519.44 9907.91,2519.44 c -1765.09,0 -3363.1,715.46 -4519.86,1872.22 -1156.75,1156.75 -1872.21,2754.77 -1872.21,4519.86 0,1765.08 715.46,3363.08 1872.21,4519.88 1156.75,1156.7 2754.77,1872.2 4519.86,1872.2 z m 4120.79,-2271.3 c -1054.6,1054.5 -2511.5,1706.8 -4120.79,1706.8 -1609.26,0 -3066.17,-652.3 -4120.74,-1706.8 C 4732.6,11977.7 4080.33,10520.8 4080.33,8911.52 c 0,-1609.27 652.27,-3066.18 1706.84,-4120.75 1054.57,-1054.58 2511.48,-1706.84 4120.74,-1706.84 1609.29,0 3066.19,652.26 4120.79,1706.84 1054.5,1054.57 1706.8,2511.48 1706.8,4120.75 0,1609.28 -652.3,3066.18 -1706.8,4120.78"/>
      </g>
    </g>
  </g>
</svg>